<?xml version="1.0" standalone="no"?>
<!DOCTYPE svg PUBLIC "-//W3C//DTD SVG 1.1//EN" "http://www.w3.org/Graphics/SVG/1.1/DTD/svg11.dtd" >
<svg xmlns="http://www.w3.org/2000/svg" xmlns:xlink="http://www.w3.org/1999/xlink" version="1.1">
<metadata>
Created by FontForge 20161116 at Tue Feb 28 19:48:43 2017
 By Jimmy Warting
\251 FontSite Inc., 1996-2017. All Rights Reserved. www.fontsite.com
</metadata>
<defs>
<font id="franklin_gothic_fs_medregular" horiz-adv-x="587" >
  <font-face 
    font-family="Franklin Gothic FS Med"
    font-weight="500"
    font-stretch="normal"
    units-per-em="1000"
    panose-1="2 11 7 4 3 5 3 2 2 4"
    ascent="827"
    descent="-173"
    x-height="493"
    cap-height="667"
    bbox="-169 -250 1093 891"
    underline-thickness="102"
    underline-position="-103"
    stemh="98"
    stemv="113"
    unicode-range="U+000D-FB02"
  />
<missing-glyph horiz-adv-x="500" 
d="M50 0v667h400v-667h-400zM250 373l140 256h-280zM412 78v511l-140 -256zM88 78l140 255l-140 256v-511zM110 38h280l-140 255z" />
    <glyph glyph-name="f_i" unicode="fi" horiz-adv-x="541" 
d="M84 0v406h-73v87h73c1 69 9 100 32 129c27 35 71 55 124 55c17 0 32 -1 68 -5v-88h-15c-79 0 -94 -13 -94 -79v-12h109v-87h-109v-406h-115zM359 550v117h115v-117h-115zM359 0v493h115v-493h-115z" />
    <glyph glyph-name="f_l" unicode="fl" horiz-adv-x="541" 
d="M85 0v406h-74v87h74c2 70 8 98 32 129c27 37 68 55 124 55c20 0 37 -1 67 -5v-89c-12 1 -23 1 -29 1c-36 0 -59 -10 -71 -29c-7 -12 -8 -17 -8 -62h108v-87h-108v-406h-115zM359 0v667h115v-667h-115z" />
    <glyph glyph-name=".notdef" horiz-adv-x="500" 
d="M50 0v667h400v-667h-400zM250 373l140 256h-280zM412 78v511l-140 -256zM88 78l140 255l-140 256v-511zM110 38h280l-140 255z" />
    <glyph glyph-name="NULL" horiz-adv-x="0" 
 />
    <glyph glyph-name="NULL" horiz-adv-x="0" 
 />
    <glyph glyph-name="CR" unicode="&#xd;" horiz-adv-x="250" 
 />
    <glyph glyph-name="space" unicode=" " horiz-adv-x="250" 
 />
    <glyph glyph-name="exclam" unicode="!" horiz-adv-x="275" 
d="M114 202l-47 465h147l-49 -465h-51zM77 0v122h122v-122h-122z" />
    <glyph glyph-name="quotedbl" unicode="&#x22;" horiz-adv-x="378" 
d="M233 399l-17 268h110l-17 -268h-76zM68 399l-16 268h109l-16 -268h-77z" />
    <glyph glyph-name="numbersign" unicode="#" 
d="M89 0l35 196h-100l16 93h102l18 102h-101l17 94h101l32 182h91l-32 -182h105l32 182h91l-33 -182h99l-17 -94h-97l-18 -102h97l-17 -94h-98l-34 -195h-91l35 195h-106l-35 -195h-92zM233 289h105l18 102h-105z" />
    <glyph glyph-name="dollar" unicode="$" 
d="M23 181l105 24c16 -66 64 -108 127 -111v193c-64 16 -86 23 -119 39c-56 27 -88 80 -88 146c0 79 43 141 117 169c28 11 48 16 90 21v70h66v-70c97 -12 173 -71 192 -150l-99 -21c-20 55 -44 76 -93 81v-171l27 -7c89 -23 120 -39 147 -72c27 -32 41 -73 41 -119
c0 -66 -29 -122 -82 -156c-38 -25 -69 -35 -133 -42v-90h-66v90c-119 9 -203 73 -232 176zM255 408v164c-62 -1 -99 -31 -99 -83c0 -46 28 -70 99 -81zM321 94c67 4 108 40 108 96c0 49 -33 77 -108 91v-187z" />
    <glyph glyph-name="percent" unicode="%" horiz-adv-x="771" 
d="M187 302c-90 0 -155 79 -155 189c0 107 65 182 156 182c43 0 82 -15 107 -40c30 -32 50 -90 50 -149c0 -103 -68 -182 -158 -182zM143 0l414 667h73l-413 -667h-74zM187 374c43 0 68 39 68 108c0 81 -21 120 -65 120s-66 -38 -66 -111c0 -76 22 -117 63 -117zM429 174
c0 110 67 192 158 192c46 0 91 -24 119 -64c23 -32 34 -73 34 -124c0 -110 -64 -184 -159 -184c-88 0 -152 75 -152 180zM520 179c0 -77 22 -114 66 -114c41 0 65 43 65 119c0 73 -21 109 -62 109c-44 0 -69 -41 -69 -114z" />
    <glyph glyph-name="ampersand" unicode="&#x26;" horiz-adv-x="717" 
d="M697 84v-93c-34 -1 -34 -1 -46 -1c-63 0 -90 13 -149 71c-67 -47 -141 -71 -219 -71c-144 0 -251 89 -251 209c0 55 26 110 68 145c27 22 49 34 105 60c-46 57 -58 84 -58 127c0 86 71 146 174 146c105 0 177 -59 177 -144c0 -69 -45 -126 -130 -162l145 -165
c44 56 73 123 84 198l100 -17c-15 -98 -54 -181 -118 -252c43 -46 55 -53 89 -53c7 0 14 0 29 2zM314 443c61 27 85 52 85 88s-29 61 -69 61s-71 -26 -71 -59c0 -28 17 -57 55 -90zM438 135l-175 196c-24 -10 -44 -24 -66 -45c-22 -20 -33 -48 -33 -80
c0 -70 56 -119 137 -119c47 0 94 16 137 48z" />
    <glyph glyph-name="quoteright" unicode="&#x2019;" horiz-adv-x="241" 
d="M65 426l54 131h-54v110h111v-110l-75 -131h-36z" />
    <glyph glyph-name="parenleft" unicode="(" horiz-adv-x="293" 
d="M200 -167c-110 120 -168 268 -168 426c0 92 20 176 63 259c37 72 66 113 105 149h66c-67 -99 -75 -113 -97 -171c-31 -82 -44 -155 -44 -241c0 -151 50 -301 141 -422h-66z" />
    <glyph glyph-name="parenright" unicode=")" horiz-adv-x="293" 
d="M93 -167h-66c66 97 75 113 97 171c31 82 44 154 44 241c0 151 -50 300 -141 422h66c111 -122 169 -268 169 -426c0 -93 -20 -176 -63 -259c-38 -72 -67 -113 -106 -149z" />
    <glyph glyph-name="asterisk" unicode="*" 
d="M216 268l-76 52l99 122l-155 34l24 88l151 -57l-11 166h92l-12 -166l152 57l24 -88l-155 -34l99 -122l-77 -52l-77 134z" />
    <glyph glyph-name="plus" unicode="+" 
d="M247 83v207h-201v93h201v208h93v-208h200v-93h-200v-207h-93z" />
    <glyph glyph-name="comma" unicode="," horiz-adv-x="241" 
d="M60 0v125h121v-112l-78 -156h-43l58 143h-58z" />
    <glyph glyph-name="hyphen" unicode="-" horiz-adv-x="241" 
d="M-2 208v91h245v-91h-245z" />
    <glyph glyph-name="period" unicode="." horiz-adv-x="241" 
d="M60 0v128h121v-128h-121z" />
    <glyph glyph-name="slash" unicode="/" horiz-adv-x="479" 
d="M13 -167h-69l434 834h72z" />
    <glyph glyph-name="zero" unicode="0" 
d="M291 -10c-158 0 -256 130 -256 339c0 105 23 189 70 251c50 67 108 97 186 97c161 0 260 -133 260 -349c0 -82 -20 -159 -56 -221c-45 -77 -114 -117 -204 -117zM291 84c43 0 74 16 96 50c24 37 40 111 40 195c0 68 -9 135 -23 173c-22 60 -55 86 -110 86
c-92 0 -137 -82 -137 -251c0 -173 43 -253 134 -253z" />
    <glyph glyph-name="one" unicode="1" 
d="M68 0v98h201v422c-67 -60 -126 -99 -182 -121v121c85 32 105 42 144 75c44 38 64 59 79 85h80v-582h188v-98h-510z" />
    <glyph glyph-name="two" unicode="2" 
d="M42 0v117l125 83c122 79 134 89 176 131s63 82 63 124c0 68 -50 117 -118 117c-74 0 -119 -48 -130 -139l-116 29c11 59 26 93 61 133c49 56 109 82 190 82c145 0 242 -90 242 -224c0 -73 -32 -134 -101 -191c-50 -41 -50 -41 -248 -158h347v-104h-491z" />
    <glyph glyph-name="three" unicode="3" 
d="M154 484l-110 20c27 106 124 173 248 173c133 0 227 -75 227 -179c0 -82 -50 -142 -124 -151c92 -17 145 -76 145 -161c0 -116 -103 -196 -253 -196c-84 0 -149 25 -202 77c-33 32 -49 59 -60 100l113 28c23 -74 72 -111 148 -111s130 43 130 104c0 34 -21 71 -50 89
c-18 11 -46 17 -74 17h-82v95h61c79 0 128 37 128 97s-42 95 -111 95c-67 0 -108 -29 -134 -97z" />
    <glyph glyph-name="four" unicode="4" 
d="M34 151v88l296 441h123v-426h100v-103h-100v-151h-123v151h-296zM150 254h180v184c0 20 1 38 9 117z" />
    <glyph glyph-name="five" unicode="5" 
d="M194 564l-19 -194c47 56 90 77 156 77c128 0 230 -100 230 -225c0 -57 -23 -114 -62 -156c-47 -50 -115 -76 -198 -76c-86 0 -161 28 -209 78c-27 28 -40 55 -53 104l115 18c23 -69 70 -103 141 -103c81 0 136 55 136 135c0 77 -53 133 -126 133c-58 0 -100 -25 -130 -77
l-107 21l38 368h414l-10 -103h-316z" />
    <glyph glyph-name="six" unicode="6" 
d="M159 357v-29c20 35 33 51 57 67c32 21 73 33 117 33c126 0 220 -90 220 -211c0 -132 -101 -227 -241 -227c-168 0 -273 129 -273 336c0 214 105 351 268 351c71 0 139 -26 178 -70c21 -24 34 -49 46 -92l-102 -20c-22 66 -57 94 -118 94c-69 0 -111 -36 -135 -117
c-12 -38 -17 -75 -17 -115zM180 205c0 -76 53 -127 130 -127c74 0 128 51 128 122c0 79 -55 135 -133 135c-72 0 -125 -55 -125 -130z" />
    <glyph glyph-name="seven" unicode="7" 
d="M185 0c14 224 89 394 247 564h-381l10 103h473v-85c-158 -207 -198 -318 -212 -582h-137z" />
    <glyph glyph-name="eight" unicode="8" 
d="M28 169c0 75 41 122 141 160c-57 30 -80 49 -99 85c-12 24 -18 49 -18 75c0 113 97 188 244 188c143 0 236 -68 236 -173c0 -67 -32 -106 -119 -145c44 -20 61 -30 82 -46c39 -31 63 -79 63 -129c0 -116 -109 -194 -271 -194c-158 0 -259 70 -259 179zM330 394l22 10
c47 24 71 56 71 96c0 55 -52 94 -126 94s-124 -35 -124 -86c0 -50 32 -73 157 -114zM143 175c0 -57 62 -98 151 -98c85 0 141 35 141 89c0 52 -37 76 -183 124c-72 -28 -109 -67 -109 -115z" />
    <glyph glyph-name="nine" unicode="9" 
d="M59 121l101 28c15 -24 22 -33 32 -42c20 -17 51 -27 81 -27c99 0 156 95 157 265c-24 -42 -39 -60 -61 -75c-29 -20 -70 -31 -113 -31c-128 0 -220 89 -220 214c0 132 98 224 239 224c79 0 143 -27 192 -79c54 -59 79 -138 79 -246c0 -103 -22 -185 -66 -252
c-50 -74 -118 -110 -210 -110c-103 0 -180 48 -211 131zM278 336c74 0 132 55 132 124c0 73 -54 126 -131 126c-74 0 -128 -53 -128 -126c0 -70 55 -124 127 -124z" />
    <glyph glyph-name="colon" unicode=":" horiz-adv-x="241" 
d="M60 339v122h121v-122h-121zM60 0v122h121v-122h-121z" />
    <glyph glyph-name="semicolon" unicode=";" horiz-adv-x="241" 
d="M60 339v122h121v-122h-121zM60 0v125h121v-112l-78 -156h-43l58 143h-58z" />
    <glyph glyph-name="less" unicode="&#x3c;" 
d="M67 285v96l433 215v-112l-313 -151l312 -152l1 -112z" />
    <glyph glyph-name="equal" unicode="=" 
d="M46 358v93h494v-93h-494zM46 212v93h494v-93h-494z" />
    <glyph glyph-name="greater" unicode="&#x3e;" 
d="M87 69v113l313 151l-312 152l-1 111l433 -216v-95z" />
    <glyph glyph-name="question" unicode="?" horiz-adv-x="502" 
d="M198 191v66c0 44 9 57 72 106c48 37 69 72 69 114c0 58 -39 97 -98 97c-47 0 -83 -24 -100 -67c-8 -20 -12 -34 -18 -72l-106 19c10 132 107 223 237 223c124 0 216 -83 216 -194c0 -51 -21 -101 -61 -141c-13 -13 -18 -16 -85 -65c-27 -19 -30 -29 -31 -86h-95zM198 0
v122h115v-122h-115z" />
    <glyph glyph-name="at" unicode="@" horiz-adv-x="717" 
d="M602 112l29 -66c-85 -43 -159 -61 -248 -61c-75 0 -144 16 -198 47c-107 61 -173 176 -173 301c0 197 157 349 361 349c188 0 331 -131 331 -302c0 -133 -84 -246 -184 -246c-37 0 -69 20 -83 51c-30 -37 -62 -53 -102 -53c-87 0 -151 80 -151 188c0 111 73 196 168 196
c41 0 79 -17 96 -42l4 34h84l-27 -227c-2 -16 -3 -31 -3 -46c0 -23 7 -33 23 -33c54 0 106 87 106 175c0 139 -110 240 -261 240c-159 0 -282 -123 -282 -283c0 -102 51 -194 135 -242c42 -24 95 -37 155 -37c81 0 130 13 220 57zM340 212c55 0 103 61 103 129
c0 54 -36 95 -84 95c-51 0 -88 -50 -88 -120c0 -61 29 -104 69 -104z" />
    <glyph glyph-name="A" unicode="A" horiz-adv-x="603" 
d="M3 0l221 667h148l224 -667h-129l-53 159h-256l-53 -159h-102zM188 255h194l-97 298z" />
    <glyph glyph-name="B" unicode="B" horiz-adv-x="607" 
d="M73 0v667h260c74 0 110 -8 147 -34c43 -30 69 -81 69 -139c0 -77 -43 -129 -121 -148c39 -8 57 -15 79 -32c41 -30 63 -77 63 -133c0 -51 -20 -100 -54 -132c-36 -34 -82 -49 -152 -49h-291zM187 387h146c59 0 97 38 97 96c0 54 -39 89 -99 89h-144v-185zM187 100h155
c65 0 106 37 106 96c0 57 -42 96 -105 96h-156v-192z" />
    <glyph glyph-name="C" unicode="C" horiz-adv-x="579" 
d="M446 232l111 -13c-11 -72 -26 -108 -65 -151c-48 -53 -107 -78 -187 -78c-81 0 -142 27 -186 83c-53 66 -81 156 -81 261c0 208 107 343 271 343c135 0 223 -83 248 -236l-111 -12c-13 55 -22 78 -41 104c-21 29 -57 47 -95 47c-90 0 -142 -88 -142 -243
s54 -246 146 -246c69 0 122 57 132 141z" />
    <glyph glyph-name="D" unicode="D" horiz-adv-x="655" 
d="M70 0v667h245c86 0 150 -26 206 -83c62 -64 95 -149 95 -249c0 -112 -41 -208 -115 -269c-53 -44 -125 -66 -213 -66h-218zM193 98h100c117 0 193 94 193 239c0 138 -74 235 -179 235h-114v-474z" />
    <glyph glyph-name="E" unicode="E" horiz-adv-x="537" 
d="M73 0v667h429v-99h-309v-181h248v-97h-248v-187h313v-103h-433z" />
    <glyph glyph-name="F" unicode="F" horiz-adv-x="508" 
d="M73 0v667h421v-103h-298v-183h235v-100h-235v-281h-123z" />
    <glyph glyph-name="G" unicode="G" horiz-adv-x="642" 
d="M526 0l-37 90c-43 -69 -98 -100 -180 -100c-89 0 -157 35 -203 102c-44 65 -68 152 -68 243c0 92 26 176 73 240c50 68 122 102 212 102c81 0 141 -27 191 -85c30 -35 44 -64 57 -119l-105 -18c-9 36 -16 53 -30 71c-26 32 -66 51 -110 51c-46 0 -87 -20 -114 -55
c-33 -43 -47 -98 -47 -181c0 -167 54 -252 158 -252c83 0 143 63 143 150v5h-138v97h251v-341h-53z" />
    <glyph glyph-name="H" unicode="H" horiz-adv-x="641" 
d="M73 0v667h120v-274h255v274h120v-667h-120v290h-255v-290h-120z" />
    <glyph glyph-name="I" unicode="I" horiz-adv-x="267" 
d="M73 0v667h120v-667h-120z" />
    <glyph glyph-name="J" unicode="J" horiz-adv-x="371" 
d="M0 0v97c44 -3 62 -4 77 -4c42 0 75 11 90 31c11 14 15 38 15 83v460h123v-460c0 -63 -13 -118 -34 -147c-37 -50 -87 -70 -175 -70c-43 0 -69 3 -96 10z" />
    <glyph glyph-name="K" unicode="K" horiz-adv-x="614" 
d="M73 0v667h120v-351l33 50l222 301h121l-158 -219l186 -448h-134l-141 340l-129 -171v-169h-120z" />
    <glyph glyph-name="L" unicode="L" horiz-adv-x="498" 
d="M73 0v667h127v-558h283v-109h-410z" />
    <glyph glyph-name="M" unicode="M" horiz-adv-x="801" 
d="M73 0v667h188l139 -430l138 430h189v-667h-123v584l-185 -584h-63l-185 584v-584h-98z" />
    <glyph glyph-name="N" unicode="N" horiz-adv-x="650" 
d="M73 0v667h133l233 -393l20 -37c3 -6 11 -23 22 -43v473h95v-667h-110l-260 426l-18 36l-18 36v-498h-97z" />
    <glyph glyph-name="O" unicode="O" horiz-adv-x="643" 
d="M112 89c-48 65 -74 151 -74 247c0 200 118 341 286 341c171 0 281 -137 281 -349c0 -201 -116 -338 -286 -338c-87 0 -160 35 -207 99zM197 167c22 -49 69 -80 123 -80c52 0 102 31 125 78c20 39 30 94 30 161c0 168 -51 254 -152 254c-54 0 -98 -26 -120 -69
c-22 -44 -35 -109 -35 -179c0 -64 10 -121 29 -165z" />
    <glyph glyph-name="P" unicode="P" horiz-adv-x="599" 
d="M73 0v667h273c64 0 100 -8 140 -33c58 -36 90 -96 90 -167c0 -119 -90 -203 -216 -203h-167v-264h-120zM193 367h142c71 0 115 38 115 99c0 27 -12 58 -30 74c-19 18 -50 27 -96 27h-131v-200z" />
    <glyph glyph-name="Q" unicode="Q" horiz-adv-x="643" 
d="M577 -35v-101c-34 -3 -56 -5 -69 -5c-54 0 -100 16 -122 43c-17 20 -23 41 -26 87c-17 -1 -37 -2 -47 -2c-84 0 -146 29 -196 91c-52 64 -79 150 -79 251c0 213 111 348 285 348c97 0 164 -35 217 -114c44 -64 64 -138 64 -230c0 -107 -27 -189 -84 -255
c-22 -26 -29 -31 -67 -56c-9 -6 -13 -12 -13 -20c0 -24 24 -41 56 -41c11 0 30 1 52 2c4 0 16 1 29 2zM318 88c53 0 94 24 121 69c20 34 35 108 35 172c0 165 -52 251 -151 251c-101 0 -155 -86 -155 -250c0 -162 50 -242 150 -242z" />
    <glyph glyph-name="R" unicode="R" horiz-adv-x="643" 
d="M73 0v667h289c80 0 131 -15 174 -52c39 -34 60 -84 60 -144c0 -86 -38 -141 -120 -177l117 -294h-127l-104 274h-169v-274h-120zM193 370h150c81 0 128 37 128 102c0 61 -46 99 -118 99h-160v-201z" />
    <glyph glyph-name="S" unicode="S" horiz-adv-x="571" 
d="M254 417l114 -28c72 -18 115 -43 141 -82c21 -31 32 -67 32 -108c0 -126 -105 -209 -266 -209c-83 0 -152 21 -205 63c-33 27 -50 54 -67 108l116 25c10 -34 19 -49 38 -64c28 -23 73 -35 125 -35c81 0 132 36 132 94c0 40 -27 67 -83 81l-128 33c-68 18 -101 36 -126 68
c-26 33 -39 72 -39 115c0 119 95 199 236 199c72 0 136 -20 184 -58c29 -24 44 -45 56 -86l-114 -28c-18 51 -58 75 -125 75c-69 0 -114 -33 -114 -82c0 -39 30 -65 93 -81z" />
    <glyph glyph-name="T" unicode="T" horiz-adv-x="483" 
d="M177 0v564h-177v103h483v-103h-177v-564h-129z" />
    <glyph glyph-name="U" unicode="U" horiz-adv-x="595" 
d="M531 667v-429c0 -100 -12 -140 -56 -184c-42 -42 -102 -64 -177 -64c-76 0 -138 23 -178 65c-39 40 -53 87 -53 175v437h123v-429c0 -52 9 -87 29 -108s56 -35 94 -35c41 0 80 16 99 41c15 20 24 57 24 102v429h95z" />
    <glyph glyph-name="V" unicode="V" horiz-adv-x="540" 
d="M208 0l-206 667h127l153 -511l156 511h100l-208 -667h-122z" />
    <glyph glyph-name="W" unicode="W" horiz-adv-x="883" 
d="M192 0l-182 667h128l128 -486l120 486h122l133 -486l126 486h106l-178 -667h-126l-133 490l-121 -490h-123z" />
    <glyph glyph-name="X" unicode="X" horiz-adv-x="567" 
d="M5 0l211 348l-181 319h139l124 -222l130 222h112l-185 -304l206 -363h-140l-148 263l-156 -263h-112z" />
    <glyph glyph-name="Y" unicode="Y" horiz-adv-x="544" 
d="M214 0v281l-227 386h145l158 -275l151 275h116l-216 -386v-281h-127z" />
    <glyph glyph-name="Z" unicode="Z" horiz-adv-x="533" 
d="M20 0v94l342 478h-318v95h459v-95l-337 -469h347v-103h-493z" />
    <glyph glyph-name="bracketleft" unicode="[" horiz-adv-x="293" 
d="M154 -87h81v-80h-168v834h168v-80h-81v-674z" />
    <glyph glyph-name="backslash" unicode="\" horiz-adv-x="479" 
d="M466 -167l-436 834h71l435 -834h-70z" />
    <glyph glyph-name="bracketright" unicode="]" horiz-adv-x="293" 
d="M58 -87h81v674h-81v80h168v-834h-168v80z" />
    <glyph glyph-name="asciicircum" unicode="^" horiz-adv-x="500" 
d="M11 343l165 327h149l165 -327h-119l-121 237l-120 -237h-119z" />
    <glyph glyph-name="underscore" unicode="_" horiz-adv-x="500" 
d="M0 -52h500v-102h-500v102z" />
    <glyph glyph-name="quoteleft" unicode="&#x2018;" horiz-adv-x="241" 
d="M65 426v110l75 131h36l-54 -131h54v-110h-111z" />
    <glyph glyph-name="a" unicode="a" horiz-adv-x="540" 
d="M489 0h-107c-10 36 -14 58 -17 100c-16 -37 -27 -53 -47 -70c-30 -25 -74 -40 -120 -40c-96 0 -163 62 -163 151c0 76 50 130 142 153c51 13 102 17 188 17v37c0 51 -35 76 -105 76c-68 0 -102 -23 -114 -76l-95 14c8 48 26 76 65 102c41 27 89 39 158 39
c85 0 137 -17 169 -54c25 -28 31 -55 31 -127v-222c0 -32 5 -63 15 -100zM365 206v45c-142 0 -216 -35 -216 -103c0 -46 33 -74 87 -74c77 0 129 53 129 132z" />
    <glyph glyph-name="b" unicode="b" horiz-adv-x="538" 
d="M67 0v667h111v-241c41 69 74 90 137 90c113 0 188 -103 188 -260c0 -78 -19 -142 -57 -193s-82 -73 -148 -73c-68 0 -107 24 -151 91l-30 -81h-50zM178 211c0 -83 37 -130 102 -130c35 0 61 15 79 44c19 32 28 63 27 135c-1 66 -10 94 -29 122c-16 24 -44 38 -74 38
c-64 0 -105 -53 -105 -136v-73z" />
    <glyph glyph-name="c" unicode="c" horiz-adv-x="466" 
d="M351 181l96 -10c-12 -54 -23 -80 -46 -109c-36 -47 -90 -72 -156 -72c-126 0 -210 103 -210 257c0 152 89 256 220 256c62 0 114 -22 147 -62c25 -29 36 -55 45 -108l-96 -13c-8 61 -39 92 -90 92c-68 0 -108 -64 -108 -170c0 -97 38 -155 101 -155c49 0 82 32 97 94z
" />
    <glyph glyph-name="d" unicode="d" horiz-adv-x="538" 
d="M368 0v99c-31 -75 -75 -109 -145 -109c-54 0 -100 22 -131 63c-34 44 -57 124 -57 200c0 82 25 156 69 207c31 36 73 54 125 54c63 0 105 -28 132 -88v241h111v-667h-104zM361 208v83c0 43 -7 67 -26 91c-20 24 -47 37 -76 37c-68 0 -106 -62 -106 -172
c0 -107 37 -166 103 -166c59 0 105 55 105 127z" />
    <glyph glyph-name="e" unicode="e" horiz-adv-x="524" 
d="M380 158l101 -14c-33 -100 -109 -154 -219 -154c-138 0 -227 100 -227 255c0 154 94 258 232 258c142 0 221 -96 222 -270h-338v-14c0 -91 44 -142 118 -142c56 0 88 23 111 81zM151 305h223c-2 37 -8 54 -25 77c-21 28 -50 43 -86 43c-63 0 -103 -42 -112 -120z" />
    <glyph glyph-name="f" unicode="f" horiz-adv-x="316" 
d="M84 0v406h-73v87h73c-1 78 8 110 37 142s66 43 140 43c15 0 21 0 40 -1v-88c-14 2 -22 2 -30 2c-35 0 -58 -7 -69 -22c-10 -12 -11 -19 -11 -76h110v-87h-110v-406h-107z" />
    <glyph glyph-name="g" unicode="g" horiz-adv-x="518" 
d="M210 120h147c96 0 161 -55 161 -135c0 -100 -98 -162 -257 -162s-239 45 -239 134c0 47 18 72 72 100c-35 31 -46 50 -46 81c0 45 22 74 79 103c-50 33 -69 64 -69 113c0 37 16 73 43 98c36 35 88 51 162 51c33 0 53 -2 94 -10c18 66 53 94 118 94h42v-85h-34
c-40 0 -54 -8 -72 -40c42 -36 58 -65 58 -107c0 -88 -83 -151 -199 -151c-29 0 -50 3 -93 13c-25 -13 -34 -25 -34 -47c0 -30 26 -50 67 -50zM264 270c56 0 91 30 91 78c0 54 -32 85 -89 85c-56 0 -93 -33 -93 -82s36 -81 91 -81zM340 15h-118c-28 0 -44 2 -80 12
c-18 -17 -24 -27 -24 -43c0 -52 64 -85 167 -85c84 0 129 23 129 66c0 30 -29 50 -74 50z" />
    <glyph glyph-name="h" unicode="h" horiz-adv-x="542" 
d="M67 0v667h111v-260c31 74 76 107 147 107c59 0 103 -22 127 -63c19 -32 24 -58 24 -112v-339h-111v323c0 62 -27 95 -76 95c-36 0 -73 -22 -90 -54c-15 -28 -21 -62 -21 -108v-256h-111z" />
    <glyph glyph-name="i" unicode="i" horiz-adv-x="245" 
d="M67 551v116h111v-116h-111zM67 0v493h111v-493h-111z" />
    <glyph glyph-name="j" unicode="j" horiz-adv-x="245" 
d="M67 551v116h111v-116h-111zM67 -14v507h111v-507c0 -122 -57 -184 -170 -184c-18 0 -32 1 -57 6v94c19 -2 27 -2 37 -2c63 0 79 18 79 86z" />
    <glyph glyph-name="k" unicode="k" horiz-adv-x="532" 
d="M67 0v667h107v-414c10 14 14 20 22 28l195 212h120l-148 -163l163 -330h-117l-126 253l-109 -123v-130h-107z" />
    <glyph glyph-name="l" unicode="l" horiz-adv-x="245" 
d="M67 0v667h111v-667h-111z" />
    <glyph glyph-name="m" unicode="m" horiz-adv-x="870" 
d="M67 0v493h108v-105c22 42 34 60 54 77c28 24 68 38 110 38c73 0 118 -36 142 -115c41 78 94 115 165 115c92 0 158 -65 158 -154v-349h-117v307c0 62 -29 95 -85 95c-35 0 -66 -16 -84 -44s-24 -52 -24 -99v-259h-118v307c0 32 -2 42 -11 59c-13 24 -39 38 -69 38
c-67 0 -114 -60 -114 -145v-259h-115z" />
    <glyph glyph-name="n" unicode="n" horiz-adv-x="541" 
d="M67 0v493h101v-114c41 89 84 124 151 124c57 0 113 -30 135 -73c15 -29 21 -61 21 -112v-318h-111v308c0 60 -30 98 -77 98c-37 0 -72 -24 -91 -61c-12 -24 -18 -54 -18 -92v-253h-111z" />
    <glyph glyph-name="o" unicode="o" horiz-adv-x="529" 
d="M84 81c-32 48 -49 105 -49 167c0 150 96 255 231 255c83 0 143 -32 187 -102c29 -46 41 -91 41 -155c0 -151 -96 -256 -234 -256c-76 0 -136 31 -176 91zM264 81c72 0 112 60 112 168c0 106 -39 163 -110 163c-72 0 -113 -59 -113 -165c0 -105 41 -166 111 -166z" />
    <glyph glyph-name="p" unicode="p" horiz-adv-x="538" 
d="M67 -167v660h107v-86c36 66 83 96 150 96c55 0 96 -21 127 -65c35 -50 53 -114 53 -188c0 -79 -20 -148 -58 -199c-31 -41 -72 -61 -130 -61c-61 0 -104 25 -136 79v-236h-113zM180 202c0 -72 45 -124 107 -124s99 61 99 164c0 107 -37 170 -99 170s-107 -59 -107 -140
v-70z" />
    <glyph glyph-name="q" unicode="q" horiz-adv-x="542" 
d="M359 -167v254c-27 -66 -71 -97 -137 -97c-56 0 -98 20 -129 61c-38 49 -58 118 -58 194c0 156 81 258 206 258c63 0 102 -21 145 -79l30 69h59v-660h-116zM359 218v71c0 76 -36 123 -94 123c-71 0 -112 -61 -112 -166c0 -101 41 -167 104 -167c60 0 102 57 102 139z" />
    <glyph glyph-name="r" unicode="r" horiz-adv-x="331" 
d="M67 0v493h101v-118c15 50 30 75 57 99c24 22 52 34 79 34c3 0 8 0 14 -1v-120c-3 1 -6 1 -7 1c-38 2 -76 -15 -98 -44c-21 -28 -35 -74 -35 -116v-228h-111z" />
    <glyph glyph-name="s" unicode="s" horiz-adv-x="454" 
d="M201 315l106 -22c82 -17 124 -65 124 -143c0 -97 -84 -160 -215 -160c-63 0 -117 16 -158 46c-26 20 -39 39 -51 77l104 20c21 -44 49 -60 109 -60c63 0 100 23 100 61c0 24 -21 42 -54 49l-90 18c-102 20 -149 65 -149 145c0 39 14 75 39 103c34 37 82 54 151 54
c101 0 167 -40 190 -114l-100 -21c-13 40 -39 56 -90 56c-53 0 -87 -21 -87 -53c0 -29 21 -46 71 -56z" />
    <glyph glyph-name="t" unicode="t" horiz-adv-x="322" 
d="M295 87v-87c-31 -7 -62 -11 -78 -11c-42 0 -81 15 -105 39c-26 26 -34 56 -34 123v255h-61v87h68l10 128l91 8v-136h100v-87h-100v-240c0 -62 18 -80 81 -80c4 0 16 0 28 1z" />
    <glyph glyph-name="u" unicode="u" horiz-adv-x="539" 
d="M369 0v107c-14 -42 -26 -60 -52 -81c-29 -24 -64 -36 -104 -36c-53 0 -93 20 -121 60c-18 27 -25 53 -25 98v345h114v-321c0 -26 3 -41 10 -54c12 -20 36 -33 60 -33c39 0 79 29 96 69c10 25 15 53 15 102v237h111v-493h-104z" />
    <glyph glyph-name="v" unicode="v" horiz-adv-x="444" 
d="M178 0l-171 493h116l115 -334l113 334h87l-167 -493h-93z" />
    <glyph glyph-name="w" unicode="w" horiz-adv-x="697" 
d="M162 0l-152 493h118l98 -332l84 332h101l87 -332l95 332h94l-145 -493h-100l-89 346l-88 -346h-103z" />
    <glyph glyph-name="x" unicode="x" horiz-adv-x="442" 
d="M0 0l164 254l-142 239h128l81 -145l92 145h93l-139 -214l165 -279h-128l-104 180l-114 -180h-96z" />
    <glyph glyph-name="y" unicode="y" horiz-adv-x="442" 
d="M45 -86c21 -1 40 -1 55 -1c34 0 55 9 66 28c8 14 21 51 21 58c0 2 -4 13 -11 31l-169 463h116l120 -326l103 326h89l-192 -562c-26 -76 -66 -109 -134 -109c-14 0 -40 2 -64 4v88z" />
    <glyph glyph-name="z" unicode="z" horiz-adv-x="419" 
d="M23 0v87l243 319h-220v87h349v-79l-240 -327h240v-87h-372z" />
    <glyph glyph-name="braceleft" unicode="{" horiz-adv-x="293" 
d="M76 -26v155c0 54 -15 79 -56 88v71c39 9 56 34 56 82v163c0 95 43 134 147 134c8 0 8 0 40 -1v-75c-81 0 -97 -13 -97 -78v-149c0 -63 -14 -89 -61 -114c46 -26 61 -55 61 -116v-145c0 -68 16 -81 97 -80v-75c-35 -1 -35 -1 -44 -1c-101 0 -143 41 -143 141z" />
    <glyph glyph-name="bar" unicode="|" horiz-adv-x="500" 
d="M193 -167v834h113v-834h-113z" />
    <glyph glyph-name="braceright" unicode="}" horiz-adv-x="293" 
d="M31 -91c81 0 97 13 97 78v149c0 63 14 89 61 114c-46 26 -61 55 -61 116v145c0 68 -16 81 -97 80v75c35 1 35 1 44 1c101 0 143 -41 143 -141v-155c0 -54 15 -79 56 -88v-71c-39 -9 -56 -34 -56 -82v-163c0 -95 -43 -134 -147 -134c-8 0 -8 0 -40 1v75z" />
    <glyph glyph-name="asciitilde" unicode="~" 
d="M114 241l-63 41c40 96 80 132 147 132c25 0 55 -8 106 -28c60 -23 69 -26 90 -26c34 0 51 13 77 56l65 -38c-27 -56 -42 -78 -68 -97c-26 -20 -57 -30 -88 -30c-24 0 -44 6 -144 44c-16 6 -34 10 -46 10c-32 0 -51 -16 -76 -64z" />
    <glyph glyph-name="exclamdown" unicode="&#xa1;" horiz-adv-x="275" 
d="M77 378v122h122v-122h-122zM62 -167l50 465h50l47 -465h-147z" />
    <glyph glyph-name="cent" unicode="&#xa2;" 
d="M274 -33v137c-54 9 -78 20 -109 47c-53 45 -80 110 -80 190c0 78 25 142 73 187c33 32 62 46 116 54v126h62v-126c94 -12 154 -69 172 -164l-91 -17c-19 61 -41 86 -81 93v-301c39 2 63 30 81 89l91 -13c-18 -96 -74 -151 -172 -165v-137h-62zM274 193v301
c-51 -12 -73 -58 -73 -155c0 -50 8 -85 25 -112c12 -19 22 -27 48 -34z" />
    <glyph glyph-name="sterling" unicode="&#xa3;" 
d="M-12 0v111c73 1 97 8 124 34c27 25 40 55 40 90c0 14 -1 30 -6 69h-77v87h67c-6 42 -8 64 -8 83c0 119 83 203 201 203c51 0 96 -14 131 -42c24 -19 38 -38 60 -80l-94 -44c-18 52 -46 75 -92 75c-54 0 -85 -38 -85 -103c0 -26 3 -48 15 -92h121v-87h-121v-23
c0 -80 -16 -116 -75 -170h128c68 0 98 5 124 21c27 16 37 34 43 73l105 -53c-17 -46 -36 -75 -65 -101c-42 -39 -81 -51 -163 -51h-373z" />
    <glyph glyph-name="fraction" unicode="&#x2044;" horiz-adv-x="144" 
d="M-98 0h-71l411 667h72z" />
    <glyph glyph-name="yen" unicode="&#xa5;" 
d="M53 205v60h186v16l-45 82h-141v60h109l-133 244h139l144 -276l137 276h109l-125 -244h102v-60h-133l-42 -82v-16h175v-60h-175v-205h-121v205h-186z" />
    <glyph glyph-name="florin" unicode="&#x192;" 
d="M57 -40h27c40 0 60 6 74 21c15 15 18 27 29 88l72 396h-72l14 89h74c10 70 24 108 49 137c29 34 87 55 149 55c15 0 28 -1 58 -4l-16 -94c-13 1 -22 1 -28 1c-74 0 -92 -16 -103 -95h105l-17 -89h-104l-65 -365c-16 -92 -20 -104 -37 -138c-23 -45 -63 -79 -105 -89
c-18 -4 -49 -7 -77 -7c-18 0 -26 1 -44 5z" />
    <glyph glyph-name="section" unicode="&#xa7;" 
d="M60 -31l107 21c29 -56 73 -82 136 -82s106 31 106 75c0 39 -24 61 -94 87l-105 39c-49 18 -70 31 -88 55c-21 28 -32 61 -32 97c0 57 23 95 77 129c-45 37 -61 66 -61 114c0 103 82 169 208 169c98 0 168 -42 203 -121l-91 -26c-18 49 -60 74 -120 74
c-61 0 -97 -24 -97 -64c0 -33 23 -54 78 -73l88 -30c98 -33 141 -82 141 -159c0 -48 -16 -80 -65 -131c54 -36 75 -74 75 -135c0 -113 -86 -181 -229 -181c-66 0 -118 14 -158 41c-34 24 -53 48 -79 101zM332 325l-105 36c-25 -22 -36 -41 -36 -63c0 -38 34 -69 100 -93
l92 -33c26 26 36 46 36 68c0 35 -31 66 -87 85z" />
    <glyph glyph-name="currency" unicode="&#xa4;" horiz-adv-x="667" 
d="M92 72l-62 62l101 100c-31 44 -46 89 -46 139s14 91 46 138l-102 102l62 62l101 -102c50 34 90 47 142 47c50 0 91 -13 139 -45l100 99l62 -62l-100 -99c34 -51 47 -91 47 -141c0 -49 -13 -89 -45 -137l100 -101l-61 -62l-101 100c-45 -32 -91 -47 -141 -47
s-91 13 -142 47zM334 226c80 0 145 66 145 146s-65 147 -143 147c-82 0 -147 -65 -147 -147c0 -80 65 -146 145 -146z" />
    <glyph glyph-name="quotesingle" unicode="'" horiz-adv-x="214" 
d="M68 399l-16 268h109l-16 -268h-77z" />
    <glyph glyph-name="quotedblleft" unicode="&#x201c;" horiz-adv-x="375" 
d="M204 425v110l73 132h35l-52 -132h52v-110h-108zM63 425v110l73 132h42l-56 -132h47v-110h-106z" />
    <glyph glyph-name="guillemotleft" unicode="&#xab;" horiz-adv-x="329" 
d="M242 108l-81 141l81 141h44l-44 -141l44 -141h-44zM114 108l-77 141l77 141h47l-47 -141l47 -141h-47z" />
    <glyph glyph-name="guilsinglleft" unicode="&#x2039;" horiz-adv-x="204" 
d="M115 119l-78 137l78 143h46l-46 -143l46 -137h-46z" />
    <glyph glyph-name="guilsinglright" unicode="&#x203a;" horiz-adv-x="204" 
d="M43 119l46 137l-46 143h46l78 -143l-78 -137h-46z" />
    <glyph glyph-name="fi" unicode="&#xe103;" horiz-adv-x="541" 
d="M84 0v406h-73v87h73c1 69 9 100 32 129c27 35 71 55 124 55c17 0 32 -1 68 -5v-88h-15c-79 0 -94 -13 -94 -79v-12h109v-87h-109v-406h-115zM359 550v117h115v-117h-115zM359 0v493h115v-493h-115z" />
    <glyph glyph-name="fl" unicode="&#xe104;" horiz-adv-x="541" 
d="M85 0v406h-74v87h74c2 70 8 98 32 129c27 37 68 55 124 55c20 0 37 -1 67 -5v-89c-12 1 -23 1 -29 1c-36 0 -59 -10 -71 -29c-7 -12 -8 -17 -8 -62h108v-87h-108v-406h-115zM359 0v667h115v-667h-115z" />
    <glyph glyph-name="endash" unicode="&#x2013;" 
d="M91 207v92h405v-92h-405z" />
    <glyph glyph-name="dagger" unicode="&#x2020;" 
d="M240 -167v558h-179v92h179v184h106v-184h179v-92h-179v-558h-106z" />
    <glyph glyph-name="daggerdbl" unicode="&#x2021;" 
d="M61 27v92h179v272h-179v92h179v184h106v-184h179v-92h-179v-272h179v-92h-179v-194h-106v194h-179z" />
    <glyph glyph-name="periodcentered" unicode="&#xb7;" horiz-adv-x="121" 
d="M0 190v128h121v-128h-121z" />
    <glyph glyph-name="paragraph" unicode="&#xb6;" 
d="M323 -163v506h-64c-88 0 -118 4 -154 23c-47 24 -71 70 -71 135c0 49 24 100 62 132c32 26 71 34 166 34h302v-56h-73v-774h-56v774h-55v-774h-57zM323 611h-52c-68 0 -92 -5 -111 -24c-16 -16 -28 -55 -28 -89c0 -40 19 -75 49 -88c18 -8 39 -11 79 -11h63v212z" />
    <glyph glyph-name="bullet" unicode="&#x2022;" horiz-adv-x="667" 
d="M335 200c-77 0 -139 62 -139 138c0 78 62 139 140 139c75 0 137 -63 137 -139s-62 -138 -138 -138z" />
    <glyph glyph-name="quotesinglbase" unicode="&#x201a;" horiz-adv-x="241" 
d="M65 0v110h111v-110l-75 -131h-36l54 131h-54z" />
    <glyph glyph-name="quotedblbase" unicode="&#x201e;" horiz-adv-x="375" 
d="M207 0v111h105v-111l-73 -131h-41l56 131h-47zM63 0v111h108v-111l-73 -131h-35l52 131h-52z" />
    <glyph glyph-name="quotedblright" unicode="&#x201d;" horiz-adv-x="375" 
d="M198 425l56 131h-47v111h105v-111l-73 -131h-41zM63 425l52 131h-52v111h108v-111l-73 -131h-35z" />
    <glyph glyph-name="guillemotright" unicode="&#xbb;" horiz-adv-x="329" 
d="M167 109l46 137l-46 143h46l79 -143l-79 -137h-46zM43 109l46 137l-46 143h46l78 -143l-78 -137h-46z" />
    <glyph glyph-name="ellipsis" unicode="&#x2026;" horiz-adv-x="741" 
d="M557 0v128h121v-128h-121zM310 0v128h120v-128h-120zM63 0v128h121v-128h-121z" />
    <glyph glyph-name="perthousand" unicode="&#x2030;" horiz-adv-x="1125" 
d="M187 302c-90 0 -155 79 -155 189c0 107 65 182 156 182c43 0 82 -15 107 -40c30 -32 50 -90 50 -149c0 -103 -68 -182 -158 -182zM143 0l414 667h73l-413 -667h-74zM187 374c43 0 68 39 68 108c0 81 -21 120 -65 120s-66 -38 -66 -111c0 -76 22 -117 63 -117zM782 174
c0 110 67 192 158 192c46 0 91 -24 119 -64c23 -32 34 -73 34 -124c0 -110 -64 -184 -159 -184c-88 0 -152 75 -152 180zM429 174c0 110 67 192 158 192c46 0 91 -24 119 -64c23 -32 34 -73 34 -124c0 -110 -64 -184 -159 -184c-88 0 -152 75 -152 180zM872 179
c0 -77 22 -114 66 -114c42 0 66 43 66 119c0 73 -21 109 -63 109c-44 0 -69 -41 -69 -114zM520 179c0 -77 22 -114 66 -114c41 0 65 43 65 119c0 73 -21 109 -62 109c-44 0 -69 -41 -69 -114z" />
    <glyph glyph-name="questiondown" unicode="&#xbf;" horiz-adv-x="502" 
d="M189 379v121h115v-121h-115zM379 65l106 -19c-13 -136 -107 -223 -237 -223c-124 0 -216 83 -216 194c0 51 22 101 61 140c13 13 19 17 85 66c27 19 30 28 31 86h95v-66c0 -44 -9 -58 -72 -106c-49 -38 -69 -72 -69 -114c0 -58 39 -97 98 -97c47 0 83 24 100 67
c8 20 12 35 18 72z" />
    <glyph glyph-name="grave" unicode="`" horiz-adv-x="500" 
d="M309 567l-204 86l32 73l192 -107z" />
    <glyph glyph-name="acute" unicode="&#xb4;" horiz-adv-x="500" 
d="M190 567l-21 52l192 107l32 -73z" />
    <glyph glyph-name="circumflex" unicode="&#x2c6;" horiz-adv-x="500" 
d="M80 580l170 141l170 -141l-89 -10l-81 64l-82 -64z" />
    <glyph glyph-name="tilde" unicode="&#x2dc;" horiz-adv-x="500" 
d="M125 589l-34 50c33 40 63 57 98 57c19 0 35 -5 66 -19c35 -16 49 -21 66 -21c21 0 34 9 54 38l34 -50c-18 -32 -61 -57 -100 -57c-19 0 -44 8 -73 23c-28 15 -36 18 -50 18c-17 0 -33 -10 -61 -39z" />
    <glyph glyph-name="macron" unicode="&#xaf;" horiz-adv-x="500" 
d="M103 597v63h294v-63h-294z" />
    <glyph glyph-name="breve" unicode="&#x2d8;" horiz-adv-x="500" 
d="M334 711h64c-5 -81 -64 -134 -148 -134c-87 0 -144 51 -148 134h64c9 -46 34 -65 85 -65c50 0 75 19 83 65z" />
    <glyph glyph-name="dotaccent" unicode="&#x2d9;" horiz-adv-x="500" 
d="M249 580c-31 0 -54 23 -54 54s24 55 54 55c32 0 55 -24 55 -56c0 -30 -24 -53 -55 -53z" />
    <glyph glyph-name="dieresis" unicode="&#xa8;" horiz-adv-x="500" 
d="M330 580c-31 0 -54 23 -54 54s24 55 54 55c32 0 55 -24 55 -56c0 -30 -24 -53 -55 -53zM167 580c-31 0 -54 23 -54 54s24 55 54 55c32 0 55 -24 55 -56c0 -30 -24 -53 -55 -53z" />
    <glyph glyph-name="ring" unicode="&#x2da;" horiz-adv-x="500" 
d="M249 554c-50 0 -90 40 -90 90s41 91 91 91c51 0 90 -40 90 -91c0 -50 -40 -90 -91 -90zM249 605c24 0 40 16 40 39s-16 40 -37 40c-25 0 -42 -16 -42 -39c0 -24 16 -40 39 -40z" />
    <glyph glyph-name="cedilla" unicode="&#xb8;" horiz-adv-x="500" 
d="M183 -85l28 85h40l-13 -45c34 -2 49 -6 64 -14c26 -14 41 -38 41 -65c0 -45 -42 -80 -94 -80c-25 0 -53 8 -100 29l16 39c30 -17 54 -24 76 -24s39 15 39 35c0 25 -29 41 -75 41c-5 0 -12 0 -22 -1z" />
    <glyph glyph-name="hungarumlaut" unicode="&#x2dd;" horiz-adv-x="500" 
d="M351 567l-30 42l144 117l46 -57zM184 567l-35 42l149 117l46 -57z" />
    <glyph glyph-name="ogonek" unicode="&#x2db;" horiz-adv-x="500" 
d="M462 -115l10 -36c-26 -12 -51 -17 -78 -17c-58 0 -97 30 -97 75c0 40 23 66 85 93h54c-47 -25 -70 -51 -70 -79c0 -27 21 -45 53 -45c13 0 25 2 43 9z" />
    <glyph glyph-name="caron" unicode="&#x2c7;" horiz-adv-x="500" 
d="M250 563l-170 141l88 10l82 -64l81 64l89 -10z" />
    <glyph glyph-name="commaaccent" unicode="&#xf6c3;" horiz-adv-x="500" 
d="M215 -53h100l-86 -181h-44z" />
    <glyph glyph-name="emdash" unicode="&#x2014;" horiz-adv-x="667" 
d="M-35 209v91h736v-91h-736z" />
    <glyph glyph-name="AE" unicode="&#xc6;" horiz-adv-x="846" 
d="M-17 0l355 667h469v-97h-296v-184h235v-95h-235v-188h304v-103h-424v189h-199l-95 -189h-114zM239 282h152v302z" />
    <glyph glyph-name="ordfeminine" unicode="&#xaa;" horiz-adv-x="357" 
d="M235 419l-2 -2c-29 -29 -28 -30 -42 -36c-18 -7 -37 -11 -57 -11c-62 0 -106 38 -106 93c0 67 67 104 191 104h14v18c0 29 -19 42 -60 42c-42 0 -59 -12 -67 -46l-69 10c11 60 58 89 146 89c52 0 86 -10 107 -32c17 -18 21 -34 21 -78v-132c0 -20 3 -36 10 -62h-76
c-2 6 -4 10 -4 11l-6 31v1zM233 501v23c-80 0 -123 -20 -123 -57c0 -26 18 -41 48 -41c45 0 75 30 75 75z" />
    <glyph glyph-name="Lslash" unicode="&#x141;" horiz-adv-x="498" 
d="M74 0v222l-67 -68v115l67 68v330h127v-244l135 137v-115l-135 -137v-199h283v-109h-410z" />
    <glyph glyph-name="Oslash" unicode="&#xd8;" horiz-adv-x="643" 
d="M28 -27l82 118c-51 80 -72 150 -72 244c0 202 118 342 286 342c59 0 95 -11 155 -46l43 63h94l-82 -120c48 -66 71 -145 71 -243c0 -204 -114 -341 -285 -341c-64 0 -112 15 -154 47l-45 -64h-93zM187 200l228 345c-30 28 -49 35 -92 35c-53 0 -98 -26 -120 -69
c-22 -45 -35 -109 -35 -177c0 -52 7 -98 19 -134zM230 124c30 -28 53 -37 91 -37c52 0 102 31 125 77c20 41 29 95 29 168c0 51 -3 80 -16 137z" />
    <glyph glyph-name="OE" unicode="&#x152;" horiz-adv-x="940" 
d="M465 0v33c-46 -30 -90 -43 -147 -43c-166 0 -280 141 -280 347c0 204 110 341 275 341c58 0 104 -12 152 -41v30h444v-97h-324v-183h258v-95h-258v-189h324v-103h-444zM465 214v234c0 43 -11 65 -34 88c-26 27 -66 44 -104 44c-43 0 -87 -21 -114 -55
c-32 -40 -45 -94 -45 -182c0 -166 52 -252 154 -252c41 0 82 16 112 43c22 20 31 38 31 80z" />
    <glyph glyph-name="ordmasculine" unicode="&#xba;" horiz-adv-x="349" 
d="M171 371c-85 0 -145 64 -145 155c0 90 62 154 150 154s147 -62 147 -155c0 -91 -62 -154 -152 -154zM174 431c42 0 65 34 65 95c0 60 -22 93 -63 93c-42 0 -66 -33 -66 -94c0 -59 24 -94 64 -94z" />
    <glyph glyph-name="ae" unicode="&#xe6;" horiz-adv-x="858" 
d="M711 155l103 -17c-28 -90 -115 -148 -224 -148c-86 0 -156 37 -193 102c-51 -73 -102 -102 -182 -102c-109 0 -179 59 -179 151c0 106 104 166 289 166c14 0 23 0 44 -2c-1 65 -3 73 -17 89c-17 18 -46 27 -86 27c-60 0 -95 -21 -109 -68l-99 12c10 40 22 61 45 82
c40 36 102 56 175 56c71 0 100 -10 162 -56c50 40 93 56 155 56c140 0 228 -94 228 -243v-30h-348c1 -43 5 -63 17 -89c19 -40 59 -64 106 -64c54 0 93 27 113 78zM479 305h229c-5 76 -47 119 -115 119c-64 0 -104 -42 -114 -119zM157 145c0 -44 33 -73 83 -73
c56 0 106 36 120 85c7 25 8 37 8 88c-37 0 -103 -7 -128 -14c-57 -15 -83 -42 -83 -86z" />
    <glyph glyph-name="dotlessi" unicode="&#x131;" horiz-adv-x="245" 
d="M67 0v493h111v-493h-111z" />
    <glyph glyph-name="lslash" unicode="&#x142;" horiz-adv-x="251" 
d="M70 0v282l-63 -67v82l63 67v303h111v-225l64 67v-82l-64 -67v-360h-111z" />
    <glyph glyph-name="oslash" unicode="&#xf8;" horiz-adv-x="529" 
d="M35 -32l65 91c-45 59 -65 116 -65 189c0 151 95 255 234 255c48 0 75 -8 120 -34l35 48h70l-63 -86c48 -63 63 -106 63 -182c0 -156 -94 -259 -236 -259c-46 0 -74 8 -115 31l-39 -53h-69zM166 151l164 239c-22 17 -35 22 -66 22c-70 0 -111 -61 -111 -164
c0 -35 3 -56 13 -97zM203 102c23 -16 37 -21 61 -21c73 0 112 60 112 173c0 38 -3 55 -15 84z" />
    <glyph glyph-name="oe" unicode="&#x153;" horiz-adv-x="844" 
d="M700 157l102 -16c-9 -30 -20 -48 -43 -75c-48 -54 -97 -76 -173 -76c-78 0 -126 21 -164 74c-47 -54 -90 -74 -162 -74s-122 22 -163 72c-41 49 -62 112 -62 185c0 152 93 256 229 256c72 0 118 -22 158 -74c42 53 90 74 166 74c138 0 221 -95 221 -252v-17h-337
c0 -99 42 -153 119 -153c54 0 92 27 109 76zM473 303h222c-3 73 -45 118 -110 118c-66 0 -105 -41 -112 -118zM259 81c72 0 112 61 112 173c0 53 -6 83 -22 109c-18 30 -52 49 -89 49c-69 0 -110 -62 -110 -169c0 -102 40 -162 109 -162z" />
    <glyph glyph-name="germandbls" unicode="&#xdf;" horiz-adv-x="557" 
d="M70 -46v406h-54v87h54c3 73 8 105 24 146c29 74 107 122 200 122c109 0 190 -66 190 -155c0 -52 -29 -100 -74 -123c-27 -13 -47 -20 -98 -30c-9 -8 -13 -14 -13 -19c0 -9 7 -13 50 -29l73 -32c76 -33 114 -88 114 -160c0 -109 -87 -189 -207 -189c-35 0 -59 4 -101 19
l24 75c24 -7 40 -9 68 -9c45 0 72 7 89 24c14 14 22 31 22 50c0 40 -27 67 -99 99c-90 40 -117 68 -117 120c0 36 11 60 47 104l21 8c69 26 88 45 88 88c0 48 -34 80 -83 80c-64 0 -107 -49 -107 -122v-560h-111z" />
    <glyph glyph-name="onesuperior" unicode="&#xe105;" horiz-adv-x="387" 
d="M61 266v65h114v239c-41 -33 -76 -54 -115 -70v79l18 6c51 17 98 51 124 90h56v-344h105v-65h-302z" />
    <glyph glyph-name="logicalnot" unicode="&#xac;" 
d="M77 165v102h433v-267h-113v165h-320z" />
    <glyph glyph-name="mu" unicode="&#xb5;" 
d="M85 -167v660h111v-264c0 -57 5 -79 19 -103c17 -29 45 -45 78 -45c35 0 67 19 82 47c12 23 17 52 17 101v264h111v-493h-94v75c-9 -21 -18 -33 -31 -47c-28 -30 -45 -38 -82 -38c-47 0 -85 27 -100 69v-226h-111z" />
    <glyph glyph-name="trademark" unicode="&#x2122;" horiz-adv-x="777" 
d="M335 287v380h122l80 -228l78 228h123v-380h-84v298l-102 -298h-46l-102 299v-299h-69zM107 287v315h-106v65h301v-65h-107v-315h-88z" />
    <glyph glyph-name="Eth" unicode="&#xd0;" horiz-adv-x="655" 
d="M70 0v294h-67v93h67v280h246c86 0 149 -25 206 -83c62 -64 95 -149 95 -248c0 -112 -41 -208 -115 -270c-54 -44 -125 -66 -213 -66h-219zM193 98h101c117 0 193 94 193 239c0 138 -74 235 -179 235h-115v-185h165v-93h-165v-196z" />
    <glyph glyph-name="onehalf" unicode="&#xbd;" horiz-adv-x="880" 
d="M36 266v65h114v239c-41 -33 -76 -54 -115 -70v79l18 6c51 17 98 51 124 90h56v-344h105v-65h-302zM192 0l411 667h72l-412 -667h-71zM536 0v74c65 41 66 41 81 50c76 47 84 52 111 77c25 23 38 47 38 70c0 38 -30 66 -72 66c-46 0 -72 -28 -79 -83l-80 19
c16 84 76 133 163 133c93 0 156 -54 156 -135c0 -44 -21 -82 -65 -116c-33 -25 -33 -25 -146 -87h210v-68h-317z" />
    <glyph glyph-name="plusminus" unicode="&#xb1;" 
d="M247 83v207h-201v93h201v208h93v-208h200v-93h-200v-207h-93zM46 -43v93h494v-93h-494z" />
    <glyph glyph-name="Thorn" unicode="&#xde;" horiz-adv-x="606" 
d="M73 0v667h120v-94h153c64 0 100 -8 140 -33c58 -36 90 -95 90 -166c0 -119 -90 -203 -216 -203h-167v-171h-120zM193 274h142c71 0 115 38 115 99c0 27 -13 56 -30 73c-20 18 -50 27 -96 27h-131v-199z" />
    <glyph glyph-name="onequarter" unicode="&#xbc;" horiz-adv-x="880" 
d="M33 266v65h114v239c-41 -33 -76 -54 -115 -70v79l18 6c51 17 98 51 124 90h56v-344h105v-65h-302zM189 0l411 667h72l-412 -667h-71zM529 89v56l188 263h82v-252h63v-67h-63v-89h-84v89h-186zM607 151h113v90c0 23 1 42 4 83z" />
    <glyph glyph-name="divide" unicode="&#xf7;" 
d="M292 446c-33 0 -60 27 -60 61c0 32 27 59 61 59c32 0 59 -27 59 -60s-27 -60 -60 -60zM46 290v93h494v-93h-494zM232 167c0 32 27 59 61 59c32 0 59 -27 59 -60s-27 -60 -60 -60s-60 27 -60 61z" />
    <glyph glyph-name="brokenbar" unicode="&#xa6;" horiz-adv-x="500" 
d="M193 324v343h113v-343h-113zM193 153h113v-320h-113v320z" />
    <glyph glyph-name="degree" unicode="&#xb0;" 
d="M294 413c-75 0 -134 60 -134 135c0 72 61 132 133 132c74 0 134 -60 134 -134c0 -73 -60 -133 -133 -133zM294 480c36 0 66 30 66 66c0 37 -30 67 -67 67c-36 0 -66 -30 -66 -66c0 -37 30 -67 67 -67z" />
    <glyph glyph-name="thorn" unicode="&#xfe;" horiz-adv-x="536" 
d="M67 -167v834h111v-250c30 56 81 86 144 86c55 0 96 -21 127 -65c35 -50 53 -114 53 -188c0 -79 -20 -148 -58 -199c-31 -41 -72 -61 -130 -61c-61 0 -104 25 -136 79v-236h-111zM178 202c0 -72 45 -124 107 -124s99 61 99 164c0 107 -37 170 -99 170s-107 -59 -107 -140
v-70z" />
    <glyph glyph-name="threequarters" unicode="&#xbe;" horiz-adv-x="880" 
d="M103 552l-75 13c18 67 78 108 160 108c85 0 146 -45 146 -109c0 -43 -21 -73 -63 -89c54 -22 76 -50 76 -96c0 -70 -66 -119 -162 -119c-85 0 -149 41 -170 111l78 18c15 -45 44 -67 91 -67c46 0 79 24 79 58c0 36 -30 60 -75 60h-55v63h42c47 0 77 21 77 54
c0 32 -25 52 -67 52s-65 -16 -82 -57zM225 0l412 667h72l-412 -667h-72zM519 89v56l188 263h82v-252h63v-67h-63v-89h-84v89h-186zM597 151h113v90c0 23 1 42 4 83z" />
    <glyph glyph-name="twosuperior" unicode="&#xe107;" horiz-adv-x="387" 
d="M32 267v74c15 9 41 27 80 51c79 49 84 51 111 76c26 24 38 47 38 71c0 38 -30 66 -71 66c-46 0 -72 -28 -79 -84l-80 19c16 84 75 133 163 133c92 0 155 -55 155 -135c0 -44 -21 -82 -65 -116c-32 -24 -32 -24 -145 -87h209v-68h-316z" />
    <glyph glyph-name="registered" unicode="&#xae;" horiz-adv-x="773" 
d="M41 333c0 194 155 348 351 348c186 0 341 -158 341 -348c0 -191 -155 -347 -345 -347c-191 0 -347 156 -347 347zM103 333c0 -160 128 -291 285 -291c156 0 283 131 283 291c0 159 -127 292 -279 292c-162 0 -289 -129 -289 -292zM226 133v400h185c96 0 151 -43 151 -119
c0 -50 -24 -84 -74 -105l74 -176h-90l-65 162h-96v-162h-85zM311 358h88c48 0 75 20 75 57c0 34 -26 55 -69 55h-94v-112z" />
    <glyph glyph-name="minus" unicode="&#x2212;" 
d="M46 290v93h494v-93h-494z" />
    <glyph glyph-name="eth" unicode="&#xf0;" horiz-adv-x="529" 
d="M434 655l-86 -44c95 -97 146 -220 146 -354c0 -159 -94 -266 -232 -266c-76 0 -135 29 -176 87c-33 47 -51 107 -51 166c0 138 94 250 210 250c46 0 76 -15 113 -58c-12 47 -43 106 -76 141l-94 -47l-29 41l82 44c-14 10 -49 28 -90 46l21 39c34 -7 92 -30 132 -54l95 47
zM180 124c17 -29 45 -43 83 -43c69 0 111 59 111 158c0 101 -41 162 -109 162c-46 0 -73 -17 -93 -59c-14 -28 -22 -65 -22 -99c0 -45 10 -86 30 -119z" />
    <glyph glyph-name="multiply" unicode="&#xd7;" 
d="M147 124l-66 66l147 147l-147 147l66 66l147 -147l147 147l66 -66l-147 -147l146 -147l-65 -66l-147 147z" />
    <glyph glyph-name="threesuperior" unicode="&#xe108;" horiz-adv-x="387" 
d="M108 552l-75 13c18 67 78 108 160 108c85 0 146 -45 146 -109c0 -43 -21 -73 -63 -89c54 -22 76 -50 76 -96c0 -70 -66 -119 -162 -119c-85 0 -149 41 -170 111l78 18c15 -45 44 -67 91 -67c46 0 79 24 79 58c0 36 -30 60 -75 60h-55v63h42c47 0 77 21 77 54
c0 32 -25 52 -67 52s-65 -16 -82 -57z" />
    <glyph glyph-name="copyright" unicode="&#xa9;" horiz-adv-x="773" 
d="M41 333c0 194 155 348 351 348c186 0 341 -158 341 -348c0 -191 -155 -347 -345 -347c-191 0 -347 156 -347 347zM103 333c0 -160 128 -291 285 -291c156 0 283 131 283 291c0 159 -127 292 -279 292c-162 0 -289 -129 -289 -292zM467 277l81 -9c-7 -40 -10 -51 -25 -73
c-30 -45 -77 -68 -138 -68c-52 0 -91 16 -120 49c-34 40 -52 94 -52 157c0 125 69 206 174 206c89 0 143 -49 161 -145l-80 -8c-6 22 -11 38 -15 46c-14 28 -36 43 -65 43c-53 0 -83 -51 -83 -140s32 -142 85 -142c42 0 71 31 77 84z" />
    <glyph glyph-name="Aacute" unicode="&#xc1;" horiz-adv-x="603" 
d="M268 727l-20 52l200 93l30 -74zM3 0l221 667h148l224 -667h-129l-53 159h-256l-53 -159h-102zM188 255h194l-97 298z" />
    <glyph glyph-name="Acircumflex" unicode="&#xc2;" horiz-adv-x="603" 
d="M126 740l173 127l174 -127l-93 -10l-81 54l-80 -54zM3 0l221 667h148l224 -667h-129l-53 159h-256l-53 -159h-102zM188 255h194l-97 298z" />
    <glyph glyph-name="Adieresis" unicode="&#xc4;" horiz-adv-x="603" 
d="M380 738c-31 0 -54 23 -54 54s24 55 54 55c32 0 55 -24 55 -56c0 -30 -24 -53 -55 -53zM210 738c-31 0 -54 23 -54 54s24 55 54 55c32 0 55 -24 55 -56c0 -30 -24 -53 -55 -53zM3 0l221 667h148l224 -667h-129l-53 159h-256l-53 -159h-102zM188 255h194l-97 298z" />
    <glyph glyph-name="Agrave" unicode="&#xc0;" horiz-adv-x="603" 
d="M329 727l-210 71l29 74l200 -93zM3 0l221 667h148l224 -667h-129l-53 159h-256l-53 -159h-102zM188 255h194l-97 298z" />
    <glyph glyph-name="Aring" unicode="&#xc5;" horiz-adv-x="603" 
d="M296 710c-50 0 -91 40 -91 90s41 91 91 91c51 0 91 -39 91 -91c0 -50 -41 -90 -91 -90zM296 761c23 0 40 16 40 39s-16 40 -38 40c-25 0 -42 -16 -42 -39c0 -24 16 -40 40 -40zM3 0l221 667h148l224 -667h-129l-53 159h-256l-53 -159h-102zM188 255h194l-97 298z" />
    <glyph glyph-name="Atilde" unicode="&#xc3;" horiz-adv-x="603" 
d="M179 742l-35 50c34 40 65 57 102 57c20 0 36 -5 69 -19c36 -16 51 -21 68 -21c22 0 36 9 57 38l35 -50c-25 -36 -63 -57 -104 -57c-20 0 -39 6 -76 23c-29 14 -39 18 -49 18c-20 0 -37 -10 -67 -39zM3 0l221 667h148l224 -667h-129l-53 159h-256l-53 -159h-102zM188 255
h194l-97 298z" />
    <glyph glyph-name="Ccedilla" unicode="&#xc7;" horiz-adv-x="579" 
d="M240 -89l26 81c-139 17 -228 151 -228 342c0 208 107 343 271 343c135 0 223 -83 248 -236l-111 -12c-13 55 -22 78 -41 104c-21 29 -57 47 -95 47c-90 0 -142 -89 -142 -244s54 -246 146 -246c69 0 122 57 132 142l111 -13c-16 -139 -112 -229 -247 -229l-13 -39
c76 -2 113 -28 113 -79c0 -49 -41 -83 -100 -83c-32 0 -64 9 -111 30l16 39c51 -21 62 -25 83 -25c26 0 44 15 44 36c0 28 -27 43 -74 43c-6 0 -16 0 -28 -1z" />
    <glyph glyph-name="Eacute" unicode="&#xc9;" horiz-adv-x="537" 
d="M253 727l-20 52l200 93l30 -74zM73 0v667h429v-99h-309v-181h248v-97h-248v-187h313v-103h-433z" />
    <glyph glyph-name="Ecircumflex" unicode="&#xca;" horiz-adv-x="537" 
d="M116 740l174 127l173 -127l-92 -10l-81 54l-81 -54zM73 0v667h429v-99h-309v-181h248v-97h-248v-187h313v-103h-433z" />
    <glyph glyph-name="Edieresis" unicode="&#xcb;" horiz-adv-x="537" 
d="M384 738c-31 0 -54 23 -54 54s24 55 54 55c32 0 55 -24 55 -56c0 -30 -24 -53 -55 -53zM214 738c-31 0 -54 23 -54 54s24 55 54 55c32 0 55 -24 55 -56c0 -30 -24 -53 -55 -53zM73 0v667h429v-99h-309v-181h248v-97h-248v-187h313v-103h-433z" />
    <glyph glyph-name="Egrave" unicode="&#xc8;" horiz-adv-x="537" 
d="M335 727l-210 71l30 74l199 -93zM73 0v667h429v-99h-309v-181h248v-97h-248v-187h313v-103h-433z" />
    <glyph glyph-name="Iacute" unicode="&#xcd;" horiz-adv-x="267" 
d="M107 727l-19 52l180 93l30 -74zM73 0v667h120v-667h-120z" />
    <glyph glyph-name="Icircumflex" unicode="&#xce;" horiz-adv-x="267" 
d="M69 730l-89 10l157 127l157 -127l-90 -10l-67 54zM74 0v667h120v-667h-120z" />
    <glyph glyph-name="Idieresis" unicode="&#xcf;" horiz-adv-x="267" 
d="M214 738c-31 0 -54 23 -54 54s24 55 54 55c32 0 55 -24 55 -56c0 -30 -24 -53 -55 -53zM64 738c-31 0 -54 23 -54 54s24 55 54 55c32 0 55 -24 55 -56c0 -30 -24 -53 -55 -53zM73 0v667h120v-667h-120z" />
    <glyph glyph-name="Igrave" unicode="&#xcc;" horiz-adv-x="267" 
d="M165 727l-190 71l30 74l180 -93zM73 0v667h120v-667h-120z" />
    <glyph glyph-name="Ntilde" unicode="&#xd1;" horiz-adv-x="650" 
d="M215 742l-36 50c35 40 65 57 103 57c19 0 35 -5 68 -19c36 -16 51 -21 69 -21c22 0 35 9 56 38l35 -50c-25 -36 -63 -57 -104 -57c-20 0 -39 6 -76 23c-29 14 -39 18 -48 18c-21 0 -38 -10 -67 -39zM73 0v667h133l233 -393l20 -37c3 -6 11 -23 22 -43v473h95v-667h-110
l-260 426l-18 36l-18 36v-498h-97z" />
    <glyph glyph-name="Oacute" unicode="&#xd3;" horiz-adv-x="643" 
d="M286 727l-19 52l199 93l30 -74zM112 89c-48 65 -74 151 -74 247c0 200 118 341 286 341c171 0 281 -137 281 -349c0 -201 -116 -338 -286 -338c-87 0 -160 35 -207 99zM197 167c22 -49 69 -80 123 -80c52 0 102 31 125 78c20 39 30 94 30 161c0 168 -51 254 -152 254
c-54 0 -98 -26 -120 -69c-22 -44 -35 -109 -35 -179c0 -64 10 -121 29 -165z" />
    <glyph glyph-name="Ocircumflex" unicode="&#xd4;" horiz-adv-x="643" 
d="M154 740l174 127l174 -127l-93 -10l-81 54l-81 -54zM112 89c-48 65 -74 151 -74 247c0 200 118 341 286 341c171 0 281 -137 281 -349c0 -201 -116 -338 -286 -338c-87 0 -160 35 -207 99zM197 167c22 -49 69 -80 123 -80c52 0 102 31 125 78c20 39 30 94 30 161
c0 168 -51 254 -152 254c-54 0 -98 -26 -120 -69c-22 -44 -35 -109 -35 -179c0 -64 10 -121 29 -165z" />
    <glyph glyph-name="Odieresis" unicode="&#xd6;" horiz-adv-x="643" 
d="M415 738c-31 0 -54 23 -54 54s24 55 54 55c32 0 55 -24 55 -56c0 -30 -24 -53 -55 -53zM245 738c-31 0 -54 23 -54 54s24 55 54 55c32 0 55 -24 55 -56c0 -30 -24 -53 -55 -53zM112 89c-48 65 -74 151 -74 247c0 200 118 341 286 341c171 0 281 -137 281 -349
c0 -201 -116 -338 -286 -338c-87 0 -160 35 -207 99zM197 167c22 -49 69 -80 123 -80c52 0 102 31 125 78c20 39 30 94 30 161c0 168 -51 254 -152 254c-54 0 -98 -26 -120 -69c-22 -44 -35 -109 -35 -179c0 -64 10 -121 29 -165z" />
    <glyph glyph-name="Ograve" unicode="&#xd2;" horiz-adv-x="643" 
d="M157 798l29 74l200 -93l-19 -52zM112 89c-48 65 -74 151 -74 247c0 200 118 341 286 341c171 0 281 -137 281 -349c0 -201 -116 -338 -286 -338c-87 0 -160 35 -207 99zM197 167c22 -49 69 -80 123 -80c52 0 102 31 125 78c20 39 30 94 30 161c0 168 -51 254 -152 254
c-54 0 -98 -26 -120 -69c-22 -44 -35 -109 -35 -179c0 -64 10 -121 29 -165z" />
    <glyph glyph-name="Otilde" unicode="&#xd5;" horiz-adv-x="643" 
d="M208 742l-35 50c34 40 65 57 102 57c20 0 36 -5 68 -19c37 -16 52 -21 69 -21c22 0 35 9 56 38l35 -50c-25 -36 -63 -57 -103 -57c-21 0 -39 6 -76 23c-29 14 -40 18 -49 18c-20 0 -38 -10 -67 -39zM112 89c-48 65 -74 151 -74 247c0 200 118 341 286 341
c171 0 281 -137 281 -349c0 -201 -116 -338 -286 -338c-87 0 -160 35 -207 99zM197 167c22 -49 69 -80 123 -80c52 0 102 31 125 78c20 39 30 94 30 161c0 168 -51 254 -152 254c-54 0 -98 -26 -120 -69c-22 -44 -35 -109 -35 -179c0 -64 10 -121 29 -165z" />
    <glyph glyph-name="Scaron" unicode="&#x160;" horiz-adv-x="571" 
d="M275 723l-173 128l92 10l81 -55l81 55l93 -10zM254 417l114 -28c72 -18 115 -43 141 -82c21 -31 32 -67 32 -108c0 -126 -105 -209 -266 -209c-83 0 -152 21 -205 63c-33 27 -50 54 -67 108l116 25c10 -34 19 -49 38 -64c28 -23 73 -35 125 -35c81 0 132 36 132 94
c0 40 -27 67 -83 81l-128 33c-68 18 -101 36 -126 68c-26 33 -39 72 -39 115c0 119 95 199 236 199c72 0 136 -20 184 -58c29 -24 44 -45 56 -86l-114 -28c-18 51 -58 75 -125 75c-69 0 -114 -33 -114 -82c0 -39 30 -65 93 -81z" />
    <glyph glyph-name="Uacute" unicode="&#xda;" horiz-adv-x="595" 
d="M262 727l-19 52l200 93l29 -74zM531 667v-429c0 -100 -12 -140 -56 -184c-42 -42 -102 -64 -177 -64c-76 0 -138 23 -178 65c-39 40 -53 87 -53 175v437h123v-429c0 -52 9 -87 29 -108s56 -35 94 -35c41 0 80 16 99 41c15 20 24 57 24 102v429h95z" />
    <glyph glyph-name="Ucircumflex" unicode="&#xdb;" horiz-adv-x="595" 
d="M132 740l174 127l173 -127l-92 -10l-81 54l-81 -54zM531 667v-429c0 -100 -12 -140 -56 -184c-42 -42 -102 -64 -177 -64c-76 0 -138 23 -178 65c-39 40 -53 87 -53 175v437h123v-429c0 -52 9 -87 29 -108s56 -35 94 -35c41 0 80 16 99 41c15 20 24 57 24 102v429h95z
" />
    <glyph glyph-name="Udieresis" unicode="&#xdc;" horiz-adv-x="595" 
d="M393 738c-31 0 -54 23 -54 54s24 55 54 55c32 0 55 -24 55 -56c0 -30 -24 -53 -55 -53zM223 738c-31 0 -54 23 -54 54s24 55 54 55c32 0 55 -24 55 -56c0 -30 -24 -53 -55 -53zM531 667v-429c0 -100 -12 -140 -56 -184c-42 -42 -102 -64 -177 -64c-76 0 -138 23 -178 65
c-39 40 -53 87 -53 175v437h123v-429c0 -52 9 -87 29 -108s56 -35 94 -35c41 0 80 16 99 41c15 20 24 57 24 102v429h95z" />
    <glyph glyph-name="Ugrave" unicode="&#xd9;" horiz-adv-x="595" 
d="M343 727l-210 71l29 74l200 -93zM531 667v-429c0 -100 -12 -140 -56 -184c-42 -42 -102 -64 -177 -64c-76 0 -138 23 -178 65c-39 40 -53 87 -53 175v437h123v-429c0 -52 9 -87 29 -108s56 -35 94 -35c41 0 80 16 99 41c15 20 24 57 24 102v429h95z" />
    <glyph glyph-name="Yacute" unicode="&#xdd;" horiz-adv-x="544" 
d="M243 727l-19 52l200 93l30 -74zM214 0v281l-227 386h145l158 -275l151 275h116l-216 -386v-281h-127z" />
    <glyph glyph-name="Ydieresis" unicode="&#x178;" horiz-adv-x="544" 
d="M373 738c-31 0 -54 23 -54 54s24 55 54 55c32 0 55 -24 55 -56c0 -30 -24 -53 -55 -53zM203 738c-31 0 -54 23 -54 54s24 55 54 55c32 0 55 -24 55 -56c0 -30 -24 -53 -55 -53zM214 0v281l-227 386h145l158 -275l151 275h116l-216 -386v-281h-127z" />
    <glyph glyph-name="Zcaron" unicode="&#x17d;" horiz-adv-x="533" 
d="M286 723l-173 128l92 10l81 -55l81 55l93 -10zM20 0v94l342 478h-318v95h459v-95l-337 -469h347v-103h-493z" />
    <glyph glyph-name="aacute" unicode="&#xe1;" horiz-adv-x="540" 
d="M239 567l-21 52l192 107l32 -73zM489 0h-107c-10 36 -14 58 -17 100c-16 -37 -27 -53 -47 -70c-30 -25 -74 -40 -120 -40c-96 0 -163 62 -163 151c0 76 50 130 142 153c51 13 102 17 188 17v37c0 51 -35 76 -105 76c-68 0 -102 -23 -114 -76l-95 14c8 48 26 76 65 102
c41 27 89 39 158 39c85 0 137 -17 169 -54c25 -28 31 -55 31 -127v-222c0 -32 5 -63 15 -100zM365 206v45c-142 0 -216 -35 -216 -103c0 -46 33 -74 87 -74c77 0 129 53 129 132z" />
    <glyph glyph-name="acircumflex" unicode="&#xe2;" horiz-adv-x="540" 
d="M109 580l170 141l170 -141l-89 -10l-81 64l-82 -64zM489 0h-107c-10 36 -14 58 -17 100c-16 -37 -27 -53 -47 -70c-30 -25 -74 -40 -120 -40c-96 0 -163 62 -163 151c0 76 50 130 142 153c51 13 102 17 188 17v37c0 51 -35 76 -105 76c-68 0 -102 -23 -114 -76l-95 14
c8 48 26 76 65 102c41 27 89 39 158 39c85 0 137 -17 169 -54c25 -28 31 -55 31 -127v-222c0 -32 5 -63 15 -100zM365 206v45c-142 0 -216 -35 -216 -103c0 -46 33 -74 87 -74c77 0 129 53 129 132z" />
    <glyph glyph-name="adieresis" unicode="&#xe4;" horiz-adv-x="540" 
d="M363 580c-31 0 -54 23 -54 54s24 55 54 55c32 0 55 -24 55 -56c0 -30 -24 -53 -55 -53zM200 580c-31 0 -54 23 -54 54s24 55 54 55c32 0 55 -24 55 -56c0 -30 -24 -53 -55 -53zM489 0h-107c-10 36 -14 58 -17 100c-16 -37 -27 -53 -47 -70c-30 -25 -74 -40 -120 -40
c-96 0 -163 62 -163 151c0 76 50 130 142 153c51 13 102 17 188 17v37c0 51 -35 76 -105 76c-68 0 -102 -23 -114 -76l-95 14c8 48 26 76 65 102c41 27 89 39 158 39c85 0 137 -17 169 -54c25 -28 31 -55 31 -127v-222c0 -32 5 -63 15 -100zM365 206v45
c-142 0 -216 -35 -216 -103c0 -46 33 -74 87 -74c77 0 129 53 129 132z" />
    <glyph glyph-name="agrave" unicode="&#xe0;" horiz-adv-x="540" 
d="M321 567l-204 86l32 73l192 -107zM489 0h-107c-10 36 -14 58 -17 100c-16 -37 -27 -53 -47 -70c-30 -25 -74 -40 -120 -40c-96 0 -163 62 -163 151c0 76 50 130 142 153c51 13 102 17 188 17v37c0 51 -35 76 -105 76c-68 0 -102 -23 -114 -76l-95 14c8 48 26 76 65 102
c41 27 89 39 158 39c85 0 137 -17 169 -54c25 -28 31 -55 31 -127v-222c0 -32 5 -63 15 -100zM365 206v45c-142 0 -216 -35 -216 -103c0 -46 33 -74 87 -74c77 0 129 53 129 132z" />
    <glyph glyph-name="aring" unicode="&#xe5;" horiz-adv-x="540" 
d="M277 554c-50 0 -90 40 -90 90s41 91 91 91c51 0 90 -40 90 -91c0 -50 -40 -90 -91 -90zM277 605c24 0 40 16 40 39s-16 40 -37 40c-25 0 -42 -16 -42 -39c0 -24 16 -40 39 -40zM489 0h-107c-10 36 -14 58 -17 100c-16 -37 -27 -53 -47 -70c-30 -25 -74 -40 -120 -40
c-96 0 -163 62 -163 151c0 76 50 130 142 153c51 13 102 17 188 17v37c0 51 -35 76 -105 76c-68 0 -102 -23 -114 -76l-95 14c8 48 26 76 65 102c41 27 89 39 158 39c85 0 137 -17 169 -54c25 -28 31 -55 31 -127v-222c0 -32 5 -63 15 -100zM365 206v45
c-142 0 -216 -35 -216 -103c0 -46 33 -74 87 -74c77 0 129 53 129 132z" />
    <glyph glyph-name="atilde" unicode="&#xe3;" horiz-adv-x="540" 
d="M161 589l-34 50c33 40 63 57 98 57c19 0 35 -5 66 -19c35 -16 49 -21 66 -21c21 0 34 9 54 38l34 -50c-18 -32 -61 -57 -100 -57c-19 0 -44 8 -73 23c-28 15 -36 18 -50 18c-17 0 -33 -10 -61 -39zM489 0h-107c-10 36 -14 58 -17 100c-16 -37 -27 -53 -47 -70
c-30 -25 -74 -40 -120 -40c-96 0 -163 62 -163 151c0 76 50 130 142 153c51 13 102 17 188 17v37c0 51 -35 76 -105 76c-68 0 -102 -23 -114 -76l-95 14c8 48 26 76 65 102c41 27 89 39 158 39c85 0 137 -17 169 -54c25 -28 31 -55 31 -127v-222c0 -32 5 -63 15 -100z
M365 206v45c-142 0 -216 -35 -216 -103c0 -46 33 -74 87 -74c77 0 129 53 129 132z" />
    <glyph glyph-name="ccedilla" unicode="&#xe7;" horiz-adv-x="466" 
d="M186 -85l25 77c-108 17 -176 116 -176 254c0 153 89 257 220 257c62 0 114 -22 147 -62c25 -29 36 -55 45 -108l-96 -13c-8 61 -39 92 -90 92c-68 0 -108 -64 -108 -170c0 -97 38 -155 101 -155c49 0 82 32 97 94l96 -10c-22 -114 -92 -179 -196 -181l-11 -36
c35 -2 49 -5 64 -13c26 -14 41 -38 41 -65c0 -44 -42 -80 -94 -80c-25 0 -53 8 -100 29l16 39c30 -17 54 -24 76 -24s39 15 39 35c0 25 -29 41 -75 41c-4 0 -12 0 -21 -1z" />
    <glyph glyph-name="eacute" unicode="&#xe9;" horiz-adv-x="524" 
d="M238 567l-21 52l192 107l32 -73zM380 158l101 -14c-33 -100 -109 -154 -219 -154c-138 0 -227 100 -227 255c0 154 94 258 232 258c142 0 221 -96 222 -270h-338v-14c0 -91 44 -142 118 -142c56 0 88 23 111 81zM151 305h223c-2 37 -8 54 -25 77c-21 28 -50 43 -86 43
c-63 0 -103 -42 -112 -120z" />
    <glyph glyph-name="ecircumflex" unicode="&#xea;" horiz-adv-x="524" 
d="M99 580l170 141l170 -141l-89 -10l-81 64l-82 -64zM380 158l101 -14c-33 -100 -109 -154 -219 -154c-138 0 -227 100 -227 255c0 154 94 258 232 258c142 0 221 -96 222 -270h-338v-14c0 -91 44 -142 118 -142c56 0 88 23 111 81zM151 305h223c-2 37 -8 54 -25 77
c-21 28 -50 43 -86 43c-63 0 -103 -42 -112 -120z" />
    <glyph glyph-name="edieresis" unicode="&#xeb;" horiz-adv-x="524" 
d="M349 580c-31 0 -54 23 -54 54s24 55 54 55c32 0 55 -24 55 -56c0 -30 -24 -53 -55 -53zM186 580c-31 0 -54 23 -54 54s24 55 54 55c32 0 55 -24 55 -56c0 -30 -24 -53 -55 -53zM380 158l101 -14c-33 -100 -109 -154 -219 -154c-138 0 -227 100 -227 255
c0 154 94 258 232 258c142 0 221 -96 222 -270h-338v-14c0 -91 44 -142 118 -142c56 0 88 23 111 81zM151 305h223c-2 37 -8 54 -25 77c-21 28 -50 43 -86 43c-63 0 -103 -42 -112 -120z" />
    <glyph glyph-name="egrave" unicode="&#xe8;" horiz-adv-x="524" 
d="M314 567l-204 86l32 73l192 -107zM380 158l101 -14c-33 -100 -109 -154 -219 -154c-138 0 -227 100 -227 255c0 154 94 258 232 258c142 0 221 -96 222 -270h-338v-14c0 -91 44 -142 118 -142c56 0 88 23 111 81zM151 305h223c-2 37 -8 54 -25 77c-21 28 -50 43 -86 43
c-63 0 -103 -42 -112 -120z" />
    <glyph glyph-name="iacute" unicode="&#xed;" horiz-adv-x="245" 
d="M94 567l-20 52l168 107l36 -70zM67 0v493h111v-493h-111z" />
    <glyph glyph-name="icircumflex" unicode="&#xee;" horiz-adv-x="245" 
d="M64 570l-85 10l146 141l147 -141l-85 -10l-62 64zM66 0v493h111v-493h-111z" />
    <glyph glyph-name="idieresis" unicode="&#xef;" horiz-adv-x="245" 
d="M196 584c-28 0 -50 22 -50 50c0 29 22 52 51 52s51 -22 51 -52c0 -29 -22 -50 -52 -50zM59 584c-28 0 -50 22 -50 50c0 29 22 52 51 52s51 -22 51 -52c0 -29 -22 -50 -52 -50zM67 0v493h111v-493h-111z" />
    <glyph glyph-name="igrave" unicode="&#xec;" horiz-adv-x="245" 
d="M154 567l-184 89l36 70l168 -107zM66 0v493h111v-493h-111z" />
    <glyph glyph-name="ntilde" unicode="&#xf1;" horiz-adv-x="541" 
d="M153 589l-34 50c33 40 63 57 98 57c19 0 35 -5 66 -19c35 -16 49 -21 66 -21c21 0 34 9 54 38l34 -50c-18 -32 -61 -57 -100 -57c-19 0 -44 8 -73 23c-28 15 -36 18 -50 18c-17 0 -33 -10 -61 -39zM67 0v493h101v-114c41 89 84 124 151 124c57 0 113 -30 135 -73
c15 -29 21 -61 21 -112v-318h-111v308c0 60 -30 98 -77 98c-37 0 -72 -24 -91 -61c-12 -24 -18 -54 -18 -92v-253h-111z" />
    <glyph glyph-name="oacute" unicode="&#xf3;" horiz-adv-x="529" 
d="M230 567l-21 52l192 107l32 -73zM84 81c-32 48 -49 105 -49 167c0 150 96 255 231 255c83 0 143 -32 187 -102c29 -46 41 -91 41 -155c0 -151 -96 -256 -234 -256c-76 0 -136 31 -176 91zM264 81c72 0 112 60 112 168c0 106 -39 163 -110 163c-72 0 -113 -59 -113 -165
c0 -105 41 -166 111 -166z" />
    <glyph glyph-name="ocircumflex" unicode="&#xf4;" horiz-adv-x="529" 
d="M101 580l170 141l170 -141l-89 -10l-81 64l-82 -64zM84 81c-32 48 -49 105 -49 167c0 150 96 255 231 255c83 0 143 -32 187 -102c29 -46 41 -91 41 -155c0 -151 -96 -256 -234 -256c-76 0 -136 31 -176 91zM264 81c72 0 112 60 112 168c0 106 -39 163 -110 163
c-72 0 -113 -59 -113 -165c0 -105 41 -166 111 -166z" />
    <glyph glyph-name="odieresis" unicode="&#xf6;" horiz-adv-x="529" 
d="M345 580c-31 0 -54 23 -54 54s24 55 54 55c32 0 55 -24 55 -56c0 -30 -24 -53 -55 -53zM182 580c-31 0 -54 23 -54 54s24 55 54 55c32 0 55 -24 55 -56c0 -30 -24 -53 -55 -53zM84 81c-32 48 -49 105 -49 167c0 150 96 255 231 255c83 0 143 -32 187 -102
c29 -46 41 -91 41 -155c0 -151 -96 -256 -234 -256c-76 0 -136 31 -176 91zM264 81c72 0 112 60 112 168c0 106 -39 163 -110 163c-72 0 -113 -59 -113 -165c0 -105 41 -166 111 -166z" />
    <glyph glyph-name="ograve" unicode="&#xf2;" horiz-adv-x="529" 
d="M306 567l-204 86l32 73l192 -107zM84 81c-32 48 -49 105 -49 167c0 150 96 255 231 255c83 0 143 -32 187 -102c29 -46 41 -91 41 -155c0 -151 -96 -256 -234 -256c-76 0 -136 31 -176 91zM264 81c72 0 112 60 112 168c0 106 -39 163 -110 163c-72 0 -113 -59 -113 -165
c0 -105 41 -166 111 -166z" />
    <glyph glyph-name="otilde" unicode="&#xf5;" horiz-adv-x="529" 
d="M156 589l-34 50c33 40 63 57 98 57c19 0 35 -5 66 -19c35 -16 49 -21 66 -21c21 0 34 9 54 38l34 -50c-18 -32 -61 -57 -100 -57c-19 0 -44 8 -73 23c-28 15 -36 18 -50 18c-17 0 -33 -10 -61 -39zM84 81c-32 48 -49 105 -49 167c0 150 96 255 231 255
c83 0 143 -32 187 -102c29 -46 41 -91 41 -155c0 -151 -96 -256 -234 -256c-76 0 -136 31 -176 91zM264 81c72 0 112 60 112 168c0 106 -39 163 -110 163c-72 0 -113 -59 -113 -165c0 -105 41 -166 111 -166z" />
    <glyph glyph-name="scaron" unicode="&#x161;" horiz-adv-x="454" 
d="M219 563l-170 141l88 10l82 -64l81 64l89 -10zM201 315l106 -22c82 -17 124 -65 124 -143c0 -97 -84 -160 -215 -160c-63 0 -117 16 -158 46c-26 20 -39 39 -51 77l104 20c21 -44 49 -60 109 -60c63 0 100 23 100 61c0 24 -21 42 -54 49l-90 18c-102 20 -149 65 -149 145
c0 39 14 75 39 103c34 37 82 54 151 54c101 0 167 -40 190 -114l-100 -21c-13 40 -39 56 -90 56c-53 0 -87 -21 -87 -53c0 -29 21 -46 71 -56z" />
    <glyph glyph-name="uacute" unicode="&#xfa;" horiz-adv-x="539" 
d="M232 567l-21 52l192 107l32 -73zM369 0v107c-14 -42 -26 -60 -52 -81c-29 -24 -64 -36 -104 -36c-53 0 -93 20 -121 60c-18 27 -25 53 -25 98v345h114v-321c0 -26 3 -41 10 -54c12 -20 36 -33 60 -33c39 0 79 29 96 69c10 25 15 53 15 102v237h111v-493h-104z" />
    <glyph glyph-name="ucircumflex" unicode="&#xfb;" horiz-adv-x="539" 
d="M104 580l170 141l170 -141l-89 -10l-81 64l-82 -64zM369 0v107c-14 -42 -26 -60 -52 -81c-29 -24 -64 -36 -104 -36c-53 0 -93 20 -121 60c-18 27 -25 53 -25 98v345h114v-321c0 -26 3 -41 10 -54c12 -20 36 -33 60 -33c39 0 79 29 96 69c10 25 15 53 15 102v237h111
v-493h-104z" />
    <glyph glyph-name="udieresis" unicode="&#xfc;" horiz-adv-x="539" 
d="M360 580c-31 0 -54 23 -54 54s24 55 54 55c32 0 55 -24 55 -56c0 -30 -24 -53 -55 -53zM197 580c-31 0 -54 23 -54 54s24 55 54 55c32 0 55 -24 55 -56c0 -30 -24 -53 -55 -53zM369 0v107c-14 -42 -26 -60 -52 -81c-29 -24 -64 -36 -104 -36c-53 0 -93 20 -121 60
c-18 27 -25 53 -25 98v345h114v-321c0 -26 3 -41 10 -54c12 -20 36 -33 60 -33c39 0 79 29 96 69c10 25 15 53 15 102v237h111v-493h-104z" />
    <glyph glyph-name="ugrave" unicode="&#xf9;" horiz-adv-x="539" 
d="M319 567l-204 86l32 73l192 -107zM369 0v107c-14 -42 -26 -60 -52 -81c-29 -24 -64 -36 -104 -36c-53 0 -93 20 -121 60c-18 27 -25 53 -25 98v345h114v-321c0 -26 3 -41 10 -54c12 -20 36 -33 60 -33c39 0 79 29 96 69c10 25 15 53 15 102v237h111v-493h-104z" />
    <glyph glyph-name="yacute" unicode="&#xfd;" horiz-adv-x="442" 
d="M193 567l-21 52l192 107l32 -73zM45 -86c21 -1 40 -1 55 -1c34 0 55 9 66 28c8 14 21 51 21 58c0 2 -4 13 -11 31l-169 463h116l120 -326l103 326h89l-192 -562c-26 -76 -66 -109 -134 -109c-14 0 -40 2 -64 4v88z" />
    <glyph glyph-name="ydieresis" unicode="&#xff;" horiz-adv-x="442" 
d="M315 580c-31 0 -54 23 -54 54s24 55 54 55c32 0 55 -24 55 -56c0 -30 -24 -53 -55 -53zM152 580c-31 0 -54 23 -54 54s24 55 54 55c32 0 55 -24 55 -56c0 -30 -24 -53 -55 -53zM45 -86c21 -1 40 -1 55 -1c34 0 55 9 66 28c8 14 21 51 21 58c0 2 -4 13 -11 31l-169 463
h116l120 -326l103 326h89l-192 -562c-26 -76 -66 -109 -134 -109c-14 0 -40 2 -64 4v88z" />
    <glyph glyph-name="zcaron" unicode="&#x17e;" horiz-adv-x="419" 
d="M233 563l-170 141l88 10l82 -64l81 64l89 -10zM23 0v87l243 319h-220v87h349v-79l-240 -327h240v-87h-372z" />
    <glyph glyph-name="Dcroat" unicode="&#x110;" horiz-adv-x="655" 
d="M70 0v294h-67v93h67v280h246c86 0 149 -25 206 -83c62 -64 95 -149 95 -248c0 -112 -41 -208 -115 -270c-54 -44 -125 -66 -213 -66h-219zM193 98h101c117 0 193 94 193 239c0 138 -74 235 -179 235h-115v-185h165v-93h-165v-196z" />
    <glyph glyph-name="Eng" unicode="&#x14a;" horiz-adv-x="644" 
d="M72 0v667h108l-1 -152c35 88 71 170 184 170c100 0 182 -77 201 -186c4 -22 6 -66 6 -113v-263c0 -152 -12 -209 -55 -253c-38 -39 -89 -57 -164 -57c-30 0 -50 2 -86 8l-10 104c34 -6 55 -8 79 -8c45 0 73 9 92 31c20 24 24 55 24 151v315c0 104 -22 172 -109 172
c-84 0 -151 -85 -151 -286v-300h-118z" />
    <glyph glyph-name="Hbar" unicode="&#x126;" horiz-adv-x="641" 
d="M74 0v482h-67v93h67v92h120v-92h254v92h120v-92h67v-93h-67v-482h-120v290h-254v-290h-120zM194 393h254v89h-254v-89z" />
    <glyph glyph-name="Tbar" unicode="&#x166;" horiz-adv-x="483" 
d="M177 0v314h-90v81h90v169h-177v103h483v-103h-177v-169h91v-81h-91v-314h-129z" />
    <glyph glyph-name="dcroat" unicode="&#x111;" horiz-adv-x="538" 
d="M368 0v99c-31 -75 -76 -109 -146 -109c-53 0 -99 22 -131 63c-33 43 -56 124 -56 200c0 81 26 156 69 206c31 36 73 54 125 54c63 0 105 -27 132 -87v124h-134v60h134v57h111v-57h66v-60h-66v-550h-104zM361 208v83c0 43 -7 67 -26 90c-20 24 -47 37 -76 37
c-68 0 -106 -61 -106 -171c0 -107 36 -166 103 -166c59 0 105 55 105 127z" />
    <glyph glyph-name="eng" unicode="&#x14b;" horiz-adv-x="537" 
d="M67 0v493h100v-116c30 72 38 81 59 99c23 20 52 30 85 30c78 0 145 -58 156 -139c2 -17 4 -40 4 -83v-240c0 -114 -12 -156 -45 -189c-29 -29 -69 -42 -128 -42c-25 0 -42 1 -72 6l-9 90c26 -4 41 -6 59 -6c62 0 85 7 85 123v268c0 74 -16 123 -76 123
c-68 0 -109 -72 -109 -197v-220h-109z" />
    <glyph glyph-name="hbar" unicode="&#x127;" horiz-adv-x="542" 
d="M67 0v550h-67v60h67v57h111v-57h140v-60h-140v-143c31 73 76 106 146 106c59 0 102 -22 127 -63c18 -31 24 -57 24 -111v-339h-111v323c0 61 -26 94 -75 94c-37 0 -73 -22 -90 -54c-15 -28 -21 -61 -21 -107v-256h-111z" />
    <glyph glyph-name="kgreenlandic" unicode="&#x138;" horiz-adv-x="532" 
d="M67 0v493h107v-240c10 14 14 20 22 28l195 212h120l-148 -163l163 -330h-117l-126 253l-109 -123v-130h-107z" />
    <glyph glyph-name="tbar" unicode="&#x167;" horiz-adv-x="322" 
d="M295 87v-87c-31 -7 -62 -11 -78 -11c-42 0 -81 15 -105 39c-26 26 -34 56 -34 123v78h-53v67h53v110h-61v87h68l10 128l91 8v-136h100v-87h-100v-110h56v-67h-56v-63c0 -62 18 -80 81 -80c4 0 16 0 28 1z" />
    <glyph glyph-name="Euro" unicode="&#x20ac;" horiz-adv-x="595" 
d="M36 224l28 87h46c-1 14 -1 19 -1 24s0 10 1 23h-74l28 87h58c41 148 139 232 273 232c65 0 116 -17 164 -54l-41 -128c-23 56 -64 85 -123 85c-77 0 -123 -43 -144 -135h253l-28 -87h-236c-1 -14 -1 -20 -1 -27c0 -4 0 -9 1 -20h221l-28 -87h-183
c21 -91 68 -137 141 -137c56 0 104 31 129 85v-152c-34 -19 -83 -30 -130 -30c-136 0 -231 83 -268 234h-86z" />
    <glyph glyph-name="estimated" unicode="&#x212e;" horiz-adv-x="862" 
d="M668 130h101c-77 -95 -191 -143 -339 -143c-107 0 -201 31 -276 95c-76 65 -113 148 -113 251c0 105 37 186 113 250c75 62 172 97 282 97c115 0 205 -36 278 -102c73 -67 107 -154 107 -262h-616v-186c57 -68 136 -102 233 -102s174 35 230 102zM205 357h460v171
c-54 73 -132 109 -234 109c-100 0 -176 -36 -226 -109v-171z" />
    <glyph glyph-name="one.superior" unicode="&#xb9;" horiz-adv-x="387" 
d="M61 266v65h114v239c-41 -33 -76 -54 -115 -70v79l18 6c51 17 98 51 124 90h56v-344h105v-65h-302z" />
    <glyph glyph-name="two.superior" unicode="&#xb2;" horiz-adv-x="387" 
d="M32 267v74c15 9 41 27 80 51c79 49 84 51 111 76c26 24 38 47 38 71c0 38 -30 66 -71 66c-46 0 -72 -28 -79 -84l-80 19c16 84 75 133 163 133c92 0 155 -55 155 -135c0 -44 -21 -82 -65 -116c-32 -24 -32 -24 -145 -87h209v-68h-316z" />
    <glyph glyph-name="three.superior" unicode="&#xb3;" horiz-adv-x="387" 
d="M108 552l-75 13c18 67 78 108 160 108c85 0 146 -45 146 -109c0 -43 -21 -73 -63 -89c54 -22 76 -50 76 -96c0 -70 -66 -119 -162 -119c-85 0 -149 41 -170 111l78 18c15 -45 44 -67 91 -67c46 0 79 24 79 58c0 36 -30 60 -75 60h-55v63h42c47 0 77 21 77 54
c0 32 -25 52 -67 52s-65 -16 -82 -57z" />
    <glyph glyph-name="at.cap" unicode="&#xf633;" horiz-adv-x="717" 
d="M602 112l29 -66c-85 -43 -159 -61 -248 -61c-75 0 -144 16 -198 47c-107 61 -173 176 -173 301c0 197 157 349 361 349c188 0 331 -131 331 -302c0 -133 -84 -246 -184 -246c-37 0 -69 20 -83 51c-30 -37 -62 -53 -102 -53c-87 0 -151 80 -151 188c0 111 73 196 168 196
c41 0 79 -17 96 -42l4 34h84l-27 -227c-2 -16 -3 -31 -3 -46c0 -23 7 -33 23 -33c54 0 106 87 106 175c0 139 -110 240 -261 240c-159 0 -282 -123 -282 -283c0 -102 51 -194 135 -242c42 -24 95 -37 155 -37c81 0 130 13 220 57zM340 212c55 0 103 61 103 129
c0 54 -36 95 -84 95c-51 0 -88 -50 -88 -120c0 -61 29 -104 69 -104z" />
    <glyph glyph-name="lessequal" unicode="&#x2264;" 
d="M67 351v96l433 204v-106l-313 -146l313 -146v-106zM67 16v102h433v-102h-433z" />
    <glyph glyph-name="greaterequal" unicode="&#x2265;" 
d="M87 147v106l313 146l-312 146l-1 106l433 -204v-96zM87 16v102h433v-102h-433z" />
    <glyph glyph-name="approxequal" unicode="&#x2248;" 
d="M114 341l-63 41c41 97 80 132 148 132c24 0 54 -8 105 -28c60 -24 68 -26 90 -26c34 0 51 13 77 56l65 -38c-27 -55 -42 -78 -68 -97c-26 -20 -57 -30 -88 -30c-24 0 -43 6 -144 44c-16 6 -34 10 -46 10c-32 0 -51 -16 -76 -64zM114 148l-63 42c41 97 80 132 148 132
c24 0 55 -8 105 -28c60 -23 69 -26 90 -26c34 0 52 13 77 56l65 -38c-27 -56 -42 -78 -68 -97c-26 -20 -57 -30 -88 -30c-24 0 -43 6 -144 44c-16 6 -33 10 -46 10c-32 0 -51 -16 -76 -65z" />
    <glyph glyph-name="notequal" unicode="&#x2260;" 
d="M147 119l32 65h-102v102h148l37 74h-185v102h231l55 109l72 -36l-36 -73h111v-102h-157l-37 -74h194v-102h-240l-51 -101z" />
    <glyph glyph-name="infinity" unicode="&#x221e;" horiz-adv-x="667" 
d="M177 179c-94 0 -160 67 -160 161c0 92 67 159 160 159c56 0 110 -30 154 -85c44 55 98 85 158 85c94 0 160 -66 160 -160c0 -93 -66 -160 -158 -160c-59 0 -112 30 -155 86c-48 -58 -100 -86 -159 -86zM389 339l3 -3c23 -35 52 -55 80 -55c34 0 60 25 60 58
s-26 58 -60 58c-29 0 -54 -17 -83 -58zM194 281c30 0 54 17 83 58c-28 40 -53 58 -83 58c-34 0 -60 -25 -60 -58s26 -58 60 -58z" />
    <glyph glyph-name="lozenge" unicode="&#x25ca;" horiz-adv-x="667" 
d="M334 -26l-260 359l260 360l259 -360zM334 63l197 270l-197 271l-197 -271z" />
    <glyph glyph-name="integral" unicode="&#x222b;" 
d="M125 -139c25 -8 37 -11 54 -11c34 0 51 17 55 54c1 12 1 12 1 77l1 516c0 101 1 125 10 156c17 61 74 98 152 98c26 0 45 -3 85 -11l-21 -101c-25 8 -37 11 -53 11c-34 0 -52 -17 -56 -54c-1 -9 -1 -9 -1 -134v-460c0 -135 -5 -161 -32 -196c-29 -38 -72 -56 -133 -56
c-31 0 -56 3 -83 10z" />
    <glyph glyph-name="partialdiff" unicode="&#x2202;" 
d="M262 580l74 -51c66 -45 85 -61 115 -96c51 -59 72 -117 72 -196c0 -151 -89 -247 -229 -247c-142 0 -231 94 -231 244c0 99 42 172 119 207c33 15 49 18 99 19l-163 126v81h346v-87h-202zM181 243c0 -110 36 -162 112 -162c74 0 112 55 112 159s-37 157 -110 157
c-75 0 -114 -52 -114 -154z" />
    <glyph glyph-name="product" unicode="&#x220f;" horiz-adv-x="667" 
d="M11 -148h82v796h-82v102h645v-102h-81v-796h81v-102h-276v102h80v796h-253v-796h79v-102h-275v102z" />
    <glyph glyph-name="radical" unicode="&#x221a;" 
d="M155 0l-64 279h-91v102h185l23 -97c7 -29 13 -84 18 -144h9c14 112 29 193 56 306l94 394h282v-102h-183l-180 -738h-149z" />
    <glyph glyph-name="summation" unicode="&#x2211;" horiz-adv-x="667" 
d="M23 -136l245 403l-245 369v114h591v-241h-102l-11 139h-350l250 -381l-250 -415h359l7 141h106v-243h-600v114z" />
    <glyph glyph-name="Delta" unicode="&#x2206;" 
d="M-13 0l222 667h154l230 -667h-606zM126 103h297l-142 463h-14z" />
    <glyph glyph-name="Omega" unicode="&#x2126;" 
d="M10 0v103h154c-47 26 -69 46 -92 81c-34 52 -51 115 -51 190c0 181 110 303 273 303c162 0 272 -122 272 -303c0 -75 -17 -138 -51 -190c-23 -35 -45 -55 -92 -81h154v-103h-255v103c38 27 58 47 75 79c25 46 39 108 39 178c0 137 -54 220 -143 220
c-88 0 -142 -83 -142 -220c0 -69 14 -132 39 -178c17 -32 37 -52 75 -79v-103h-255z" />
    <glyph glyph-name="pi" unicode="&#x3c0;" 
d="M97 0v406h-60v87h512v-87h-60v-406h-111v406h-170v-406h-111z" />
    <glyph glyph-name="Abreve" unicode="&#x102;" horiz-adv-x="603" 
d="M390 859h67c-11 -78 -70 -127 -154 -127c-87 0 -147 49 -155 127h67c14 -42 39 -58 89 -58c49 0 73 16 86 58zM3 0l221 667h148l224 -667h-129l-53 159h-256l-53 -159h-102zM188 255h194l-97 298z" />
    <glyph glyph-name="Amacron" unicode="&#x100;" horiz-adv-x="603" 
d="M149 757v63h314v-63h-314zM3 0l221 667h148l224 -667h-129l-53 159h-256l-53 -159h-102zM188 255h194l-97 298z" />
    <glyph glyph-name="Aogonek" unicode="&#x104;" horiz-adv-x="603" 
d="M3 0l221 667h148l224 -667c-54 -30 -73 -50 -73 -80s22 -47 60 -47c16 0 27 2 46 8l10 -39c-26 -11 -54 -17 -81 -17c-65 0 -105 30 -105 79c0 42 30 75 86 96h-72l-53 159h-256l-53 -159h-102zM188 255h194l-97 298z" />
    <glyph glyph-name="Cacute" unicode="&#x106;" horiz-adv-x="579" 
d="M277 727l-20 52l200 93l30 -74zM446 232l111 -13c-11 -72 -26 -108 -65 -151c-48 -53 -107 -78 -187 -78c-81 0 -142 27 -186 83c-53 66 -81 156 -81 261c0 208 107 343 271 343c135 0 223 -83 248 -236l-111 -12c-13 55 -22 78 -41 104c-21 29 -57 47 -95 47
c-90 0 -142 -88 -142 -243s54 -246 146 -246c69 0 122 57 132 141z" />
    <glyph glyph-name="Ccaron" unicode="&#x10c;" horiz-adv-x="579" 
d="M311 723l-174 128l93 10l81 -55l81 55l93 -10zM446 232l111 -13c-11 -72 -26 -108 -65 -151c-48 -53 -107 -78 -187 -78c-81 0 -142 27 -186 83c-53 66 -81 156 -81 261c0 208 107 343 271 343c135 0 223 -83 248 -236l-111 -12c-13 55 -22 78 -41 104
c-21 29 -57 47 -95 47c-90 0 -142 -88 -142 -243s54 -246 146 -246c69 0 122 57 132 141z" />
    <glyph glyph-name="Ccircumflex" unicode="&#x108;" horiz-adv-x="579" 
d="M137 740l174 127l174 -127l-93 -10l-81 54l-81 -54zM446 232l111 -13c-11 -72 -26 -108 -65 -151c-48 -53 -107 -78 -187 -78c-81 0 -142 27 -186 83c-53 66 -81 156 -81 261c0 208 107 343 271 343c135 0 223 -83 248 -236l-111 -12c-13 55 -22 78 -41 104
c-21 29 -57 47 -95 47c-90 0 -142 -88 -142 -243s54 -246 146 -246c69 0 122 57 132 141z" />
    <glyph glyph-name="Cdotaccent" unicode="&#x10a;" horiz-adv-x="579" 
d="M310 738c-31 0 -54 23 -54 54s24 55 54 55c32 0 55 -24 55 -56c0 -30 -24 -53 -55 -53zM446 232l111 -13c-11 -72 -26 -108 -65 -151c-48 -53 -107 -78 -187 -78c-81 0 -142 27 -186 83c-53 66 -81 156 -81 261c0 208 107 343 271 343c135 0 223 -83 248 -236l-111 -12
c-13 55 -22 78 -41 104c-21 29 -57 47 -95 47c-90 0 -142 -88 -142 -243s54 -246 146 -246c69 0 122 57 132 141z" />
    <glyph glyph-name="Dcaron" unicode="&#x10e;" horiz-adv-x="655" 
d="M309 723l-174 128l93 10l81 -55l81 55l92 -10zM70 0v667h245c86 0 150 -26 206 -83c62 -64 95 -149 95 -249c0 -112 -41 -208 -115 -269c-53 -44 -125 -66 -213 -66h-218zM193 98h100c117 0 193 94 193 239c0 138 -74 235 -179 235h-114v-474z" />
    <glyph glyph-name="Ecaron" unicode="&#x11a;" horiz-adv-x="537" 
d="M300 723l-174 128l93 10l81 -55l81 55l92 -10zM73 0v667h429v-99h-309v-181h248v-97h-248v-187h313v-103h-433z" />
    <glyph glyph-name="Edotaccent" unicode="&#x116;" horiz-adv-x="537" 
d="M295 738c-31 0 -54 23 -54 54s24 55 54 55c32 0 55 -24 55 -56c0 -30 -24 -53 -55 -53zM73 0v667h429v-99h-309v-181h248v-97h-248v-187h313v-103h-433z" />
    <glyph glyph-name="Emacron" unicode="&#x112;" horiz-adv-x="537" 
d="M139 757v63h314v-63h-314zM73 0v667h429v-99h-309v-181h248v-97h-248v-187h313v-103h-433z" />
    <glyph glyph-name="Eogonek" unicode="&#x118;" horiz-adv-x="537" 
d="M73 0v667h429v-99h-309v-181h248v-97h-248v-187h313v-103c-56 -32 -72 -50 -72 -80s22 -47 60 -47c15 0 26 2 45 8l10 -39c-26 -11 -53 -17 -80 -17c-65 0 -105 30 -105 79c0 42 29 75 85 96h-376z" />
    <glyph glyph-name="Gbreve" unicode="&#x11e;" horiz-adv-x="642" 
d="M413 859h66c-11 -78 -70 -127 -154 -127c-87 0 -147 49 -154 127h66c14 -42 39 -58 89 -58c49 0 73 16 87 58zM526 0l-37 90c-43 -69 -98 -100 -180 -100c-89 0 -157 35 -203 102c-44 65 -68 152 -68 243c0 92 26 176 73 240c50 68 122 102 212 102c81 0 141 -27 191 -85
c30 -35 44 -64 57 -119l-105 -18c-9 36 -16 53 -30 71c-26 32 -66 51 -110 51c-46 0 -87 -20 -114 -55c-33 -43 -47 -98 -47 -181c0 -167 54 -252 158 -252c83 0 143 63 143 150v5h-138v97h251v-341h-53z" />
    <glyph glyph-name="Gcircumflex" unicode="&#x11c;" horiz-adv-x="642" 
d="M151 740l174 127l174 -127l-93 -10l-81 54l-81 -54zM526 0l-37 90c-43 -69 -98 -100 -180 -100c-89 0 -157 35 -203 102c-44 65 -68 152 -68 243c0 92 26 176 73 240c50 68 122 102 212 102c81 0 141 -27 191 -85c30 -35 44 -64 57 -119l-105 -18c-9 36 -16 53 -30 71
c-26 32 -66 51 -110 51c-46 0 -87 -20 -114 -55c-33 -43 -47 -98 -47 -181c0 -167 54 -252 158 -252c83 0 143 63 143 150v5h-138v97h251v-341h-53z" />
    <glyph glyph-name="Gcommaaccent" unicode="&#x122;" horiz-adv-x="642" 
d="M526 0l-37 90c-43 -69 -98 -100 -180 -100c-89 0 -157 35 -203 102c-44 65 -68 152 -68 243c0 92 26 176 73 240c50 68 122 102 212 102c81 0 141 -27 191 -85c30 -35 44 -64 57 -119l-105 -18c-9 36 -16 53 -30 71c-26 32 -66 51 -110 51c-46 0 -87 -20 -114 -55
c-33 -43 -47 -98 -47 -181c0 -167 54 -252 158 -252c83 0 143 63 143 150v5h-138v97h251v-341h-53zM266 -54h100l-86 -180h-44z" />
    <glyph glyph-name="Gdotaccent" unicode="&#x120;" horiz-adv-x="642" 
d="M322 738c-31 0 -54 23 -54 54s24 55 54 55c32 0 55 -24 55 -56c0 -30 -24 -53 -55 -53zM526 0l-37 90c-43 -69 -98 -100 -180 -100c-89 0 -157 35 -203 102c-44 65 -68 152 -68 243c0 92 26 176 73 240c50 68 122 102 212 102c81 0 141 -27 191 -85
c30 -35 44 -64 57 -119l-105 -18c-9 36 -16 53 -30 71c-26 32 -66 51 -110 51c-46 0 -87 -20 -114 -55c-33 -43 -47 -98 -47 -181c0 -167 54 -252 158 -252c83 0 143 63 143 150v5h-138v97h251v-341h-53z" />
    <glyph glyph-name="Hcircumflex" unicode="&#x124;" horiz-adv-x="641" 
d="M150 740l174 127l173 -127l-92 -10l-81 54l-81 -54zM73 0v667h120v-274h255v274h120v-667h-120v290h-255v-290h-120z" />
    <glyph glyph-name="Idotaccent" unicode="&#x130;" horiz-adv-x="267" 
d="M135 738c-31 0 -54 23 -54 54s24 55 54 55c32 0 55 -24 55 -56c0 -30 -24 -53 -55 -53zM73 0v667h120v-667h-120z" />
    <glyph glyph-name="Imacron" unicode="&#x12a;" horiz-adv-x="267" 
d="M20 757v63h241v-63h-241zM74 0v667h120v-667h-120z" />
    <glyph glyph-name="Iogonek" unicode="&#x12e;" horiz-adv-x="267" 
d="M73 0v667h120v-667c-40 -25 -63 -54 -63 -80c0 -27 22 -47 52 -47c10 0 18 2 37 8l10 -39c-31 -13 -47 -17 -70 -17c-59 0 -99 32 -99 79c0 39 23 68 76 96h-63z" />
    <glyph glyph-name="Itilde" unicode="&#x128;" horiz-adv-x="267" 
d="M8 742l-36 50c35 40 65 57 103 57c19 0 35 -5 68 -19c36 -16 51 -21 69 -21c22 0 35 9 56 38l35 -50c-25 -36 -63 -57 -104 -57c-20 0 -39 6 -76 23c-29 14 -39 18 -48 18c-21 0 -38 -10 -67 -39zM73 0v667h120v-667h-120z" />
    <glyph glyph-name="Jcircumflex" unicode="&#x134;" horiz-adv-x="371" 
d="M72 740l174 127l173 -127l-92 -10l-81 54l-81 -54zM0 0v97c44 -3 62 -4 77 -4c42 0 74 11 89 31c11 14 15 38 15 83v460h123v-460c0 -63 -13 -118 -34 -147c-37 -50 -87 -70 -175 -70c-42 0 -68 3 -95 10z" />
    <glyph glyph-name="Kcommaaccent" unicode="&#x136;" horiz-adv-x="614" 
d="M73 0v667h120v-351l33 50l222 301h121l-158 -219l186 -448h-134l-141 340l-129 -171v-169h-120zM260 -54h100l-86 -180h-44z" />
    <glyph glyph-name="Lacute" unicode="&#x139;" horiz-adv-x="498" 
d="M111 727l-19 52l200 93l29 -74zM73 0v667h127v-558h283v-109h-410z" />
    <glyph glyph-name="Lcaron" unicode="&#x13d;" horiz-adv-x="498" 
d="M73 0v667h127v-558h283v-109h-410zM283 473l30 194h100l-86 -194h-44z" />
    <glyph glyph-name="Lcommaaccent" unicode="&#x13b;" horiz-adv-x="498" 
d="M73 0v667h127v-558h283v-109h-410zM229 -54h100l-86 -180h-44z" />
    <glyph glyph-name="Nacute" unicode="&#x143;" horiz-adv-x="650" 
d="M286 727l-19 52l200 93l30 -74zM73 0v667h133l233 -393l20 -37c3 -6 11 -23 22 -43v473h95v-667h-110l-260 426l-18 36l-18 36v-498h-97z" />
    <glyph glyph-name="Ncaron" unicode="&#x147;" horiz-adv-x="650" 
d="M338 723l-174 128l93 10l81 -55l81 55l93 -10zM73 0v667h133l233 -393l20 -37c3 -6 11 -23 22 -43v473h95v-667h-110l-260 426l-18 36l-18 36v-498h-97z" />
    <glyph glyph-name="Ncommaaccent" unicode="&#x145;" horiz-adv-x="650" 
d="M73 0v667h133l233 -393l20 -37c3 -6 11 -23 22 -43v473h95v-667h-110l-260 426l-18 36l-18 36v-498h-97zM263 -54h100l-86 -180h-44z" />
    <glyph glyph-name="Ohungarumlaut" unicode="&#x150;" horiz-adv-x="643" 
d="M413 727l-30 42l147 103l43 -64zM226 727l-29 42l146 103l43 -64zM112 89c-48 65 -74 151 -74 247c0 200 118 341 286 341c171 0 281 -137 281 -349c0 -201 -116 -338 -286 -338c-87 0 -160 35 -207 99zM197 167c22 -49 69 -80 123 -80c52 0 102 31 125 78
c20 39 30 94 30 161c0 168 -51 254 -152 254c-54 0 -98 -26 -120 -69c-22 -44 -35 -109 -35 -179c0 -64 10 -121 29 -165z" />
    <glyph glyph-name="Omacron" unicode="&#x14c;" horiz-adv-x="643" 
d="M174 757v63h314v-63h-314zM112 89c-48 65 -74 151 -74 247c0 200 118 341 286 341c171 0 281 -137 281 -349c0 -201 -116 -338 -286 -338c-87 0 -160 35 -207 99zM197 167c22 -49 69 -80 123 -80c52 0 102 31 125 78c20 39 30 94 30 161c0 168 -51 254 -152 254
c-54 0 -98 -26 -120 -69c-22 -44 -35 -109 -35 -179c0 -64 10 -121 29 -165z" />
    <glyph glyph-name="Racute" unicode="&#x154;" horiz-adv-x="643" 
d="M250 727l-19 52l199 93l30 -74zM73 0v667h289c80 0 131 -15 174 -52c39 -34 60 -84 60 -144c0 -86 -38 -141 -120 -177l117 -294h-127l-104 274h-169v-274h-120zM193 370h150c81 0 128 37 128 102c0 61 -46 99 -118 99h-160v-201z" />
    <glyph glyph-name="Rcaron" unicode="&#x158;" horiz-adv-x="643" 
d="M319 723l-174 128l93 10l81 -55l81 55l92 -10zM73 0v667h289c80 0 131 -15 174 -52c39 -34 60 -84 60 -144c0 -86 -38 -141 -120 -177l117 -294h-127l-104 274h-169v-274h-120zM193 370h150c81 0 128 37 128 102c0 61 -46 99 -118 99h-160v-201z" />
    <glyph glyph-name="Rcommaaccent" unicode="&#x156;" horiz-adv-x="643" 
d="M73 0v667h289c80 0 131 -15 174 -52c39 -34 60 -84 60 -144c0 -86 -38 -141 -120 -177l117 -294h-127l-104 274h-169v-274h-120zM193 370h150c81 0 128 37 128 102c0 61 -46 99 -118 99h-160v-201zM262 -54h100l-86 -180h-44z" />
    <glyph glyph-name="Sacute" unicode="&#x15a;" horiz-adv-x="571" 
d="M243 727l-20 52l200 93l30 -74zM254 417l114 -28c72 -18 115 -43 141 -82c21 -31 32 -67 32 -108c0 -126 -105 -209 -266 -209c-83 0 -152 21 -205 63c-33 27 -50 54 -67 108l116 25c10 -34 19 -49 38 -64c28 -23 73 -35 125 -35c81 0 132 36 132 94c0 40 -27 67 -83 81
l-128 33c-68 18 -101 36 -126 68c-26 33 -39 72 -39 115c0 119 95 199 236 199c72 0 136 -20 184 -58c29 -24 44 -45 56 -86l-114 -28c-18 51 -58 75 -125 75c-69 0 -114 -33 -114 -82c0 -39 30 -65 93 -81z" />
    <glyph glyph-name="Scedilla" unicode="&#x15e;" horiz-adv-x="571" 
d="M3 161l116 25c10 -35 18 -49 38 -65c28 -22 73 -35 125 -35c81 0 132 36 132 95c0 40 -27 67 -83 81l-128 33c-68 18 -101 36 -126 68c-26 33 -39 72 -39 115c0 119 95 199 236 199c72 0 136 -20 184 -58c29 -24 44 -45 56 -86l-114 -29c-18 52 -58 76 -125 76
c-69 0 -114 -33 -114 -82c0 -39 30 -65 93 -81l114 -28c72 -18 115 -43 141 -82c21 -31 32 -68 32 -108c0 -82 -42 -145 -121 -181c-43 -20 -85 -28 -153 -28l-12 -39c75 -2 112 -28 112 -79c0 -49 -41 -83 -100 -83c-31 0 -63 9 -110 30l16 39c50 -21 62 -25 82 -25
c26 0 44 15 44 36c0 27 -26 43 -73 43c-7 0 -16 0 -28 -1l26 81c-121 17 -195 73 -221 169z" />
    <glyph glyph-name="Scircumflex" unicode="&#x15c;" horiz-adv-x="571" 
d="M105 740l174 127l173 -127l-92 -10l-81 54l-81 -54zM254 417l114 -28c72 -18 115 -43 141 -82c21 -31 32 -67 32 -108c0 -126 -105 -209 -266 -209c-83 0 -152 21 -205 63c-33 27 -50 54 -67 108l116 25c10 -34 19 -49 38 -64c28 -23 73 -35 125 -35c81 0 132 36 132 94
c0 40 -27 67 -83 81l-128 33c-68 18 -101 36 -126 68c-26 33 -39 72 -39 115c0 119 95 199 236 199c72 0 136 -20 184 -58c29 -24 44 -45 56 -86l-114 -28c-18 51 -58 75 -125 75c-69 0 -114 -33 -114 -82c0 -39 30 -65 93 -81z" />
    <glyph glyph-name="Scommaaccent" unicode="&#x218;" horiz-adv-x="571" 
d="M254 417l114 -28c72 -18 115 -43 141 -82c21 -31 32 -67 32 -108c0 -126 -105 -209 -266 -209c-83 0 -152 21 -205 63c-33 27 -50 54 -67 108l116 25c10 -34 19 -49 38 -64c28 -23 73 -35 125 -35c81 0 132 36 132 94c0 40 -27 67 -83 81l-128 33c-68 18 -101 36 -126 68
c-26 33 -39 72 -39 115c0 119 95 199 236 199c72 0 136 -20 184 -58c29 -24 44 -45 56 -86l-114 -28c-18 51 -58 75 -125 75c-69 0 -114 -33 -114 -82c0 -39 30 -65 93 -81zM230 -54h100l-86 -180h-44z" />
    <glyph glyph-name="Tcaron" unicode="&#x164;" horiz-adv-x="483" 
d="M248 723l-173 128l92 10l81 -55l81 55l93 -10zM177 0v564h-177v103h483v-103h-177v-564h-129z" />
    <glyph glyph-name="Tcommaaccent" unicode="&#x162;" horiz-adv-x="483" 
d="M177 0v564h-177v103h483v-103h-177v-564h-129zM190 -54h100l-86 -180h-44z" />
    <glyph glyph-name="Ubreve" unicode="&#x16c;" horiz-adv-x="595" 
d="M407 859h66c-11 -78 -70 -127 -154 -127c-87 0 -147 49 -154 127h66c14 -42 39 -58 89 -58c49 0 73 16 87 58zM531 667v-429c0 -100 -12 -140 -56 -184c-42 -42 -102 -64 -177 -64c-76 0 -138 23 -178 65c-39 40 -53 87 -53 175v437h123v-429c0 -52 9 -87 29 -108
s56 -35 94 -35c41 0 80 16 99 41c15 20 24 57 24 102v429h95z" />
    <glyph glyph-name="Uhungarumlaut" unicode="&#x170;" horiz-adv-x="595" 
d="M392 727l-29 42l146 103l43 -64zM205 727l-29 42l146 103l43 -64zM531 667v-429c0 -100 -12 -140 -56 -184c-42 -42 -102 -64 -177 -64c-76 0 -138 23 -178 65c-39 40 -53 87 -53 175v437h123v-429c0 -52 9 -87 29 -108s56 -35 94 -35c41 0 80 16 99 41
c15 20 24 57 24 102v429h95z" />
    <glyph glyph-name="Umacron" unicode="&#x16a;" horiz-adv-x="595" 
d="M152 757v63h314v-63h-314zM531 667v-429c0 -100 -12 -140 -56 -184c-42 -42 -102 -64 -177 -64c-76 0 -138 23 -178 65c-39 40 -53 87 -53 175v437h123v-429c0 -52 9 -87 29 -108s56 -35 94 -35c41 0 80 16 99 41c15 20 24 57 24 102v429h95z" />
    <glyph glyph-name="Uogonek" unicode="&#x172;" horiz-adv-x="595" 
d="M472 -115l10 -40c-27 -11 -54 -17 -81 -17c-65 0 -105 30 -105 79c0 38 18 62 70 90c-32 -6 -47 -7 -69 -7c-74 0 -137 23 -177 65c-39 40 -53 87 -53 175v437h123v-429c0 -51 9 -86 29 -107c20 -22 56 -35 94 -35c41 0 81 16 99 41c15 19 24 57 24 101v429h95v-429
c0 -88 -9 -126 -38 -163c-15 -19 -19 -23 -73 -67c-37 -31 -54 -58 -54 -85c0 -30 22 -47 60 -47c16 0 27 2 46 9z" />
    <glyph glyph-name="Uring" unicode="&#x16e;" horiz-adv-x="595" 
d="M312 710c-50 0 -90 40 -90 90s41 91 91 91c51 0 90 -40 90 -91c0 -50 -40 -90 -91 -90zM312 761c24 0 40 16 40 39s-16 40 -37 40c-25 0 -42 -16 -42 -39c0 -24 16 -40 39 -40zM531 667v-429c0 -100 -12 -140 -56 -184c-42 -42 -102 -64 -177 -64c-76 0 -138 23 -178 65
c-39 40 -53 87 -53 175v437h123v-429c0 -52 9 -87 29 -108s56 -35 94 -35c41 0 80 16 99 41c15 20 24 57 24 102v429h95z" />
    <glyph glyph-name="Utilde" unicode="&#x168;" horiz-adv-x="595" 
d="M175 742l-36 50c35 40 65 57 103 57c19 0 35 -5 68 -19c36 -16 51 -21 69 -21c22 0 35 9 56 38l35 -50c-25 -36 -63 -57 -104 -57c-20 0 -39 6 -76 23c-29 14 -39 18 -48 18c-21 0 -38 -10 -67 -39zM531 667v-429c0 -100 -12 -140 -56 -184c-42 -42 -102 -64 -177 -64
c-76 0 -138 23 -178 65c-39 40 -53 87 -53 175v437h123v-429c0 -52 9 -87 29 -108s56 -35 94 -35c41 0 80 16 99 41c15 20 24 57 24 102v429h95z" />
    <glyph glyph-name="Wcircumflex" unicode="&#x174;" horiz-adv-x="883" 
d="M192 0l-182 667h128l128 -486l120 486h122l133 -486l126 486h106l-178 -667h-126l-133 490l-121 -490h-123zM276 740l174 127l173 -127l-92 -10l-81 54l-81 -54z" />
    <glyph glyph-name="Ycircumflex" unicode="&#x176;" horiz-adv-x="544" 
d="M214 0v281l-227 386h145l158 -275l151 275h116l-216 -386v-281h-127zM112 740l174 127l173 -127l-92 -10l-81 54l-81 -54z" />
    <glyph glyph-name="Zacute" unicode="&#x179;" horiz-adv-x="533" 
d="M240 727l-20 52l200 93l30 -74zM20 0v94l342 478h-318v95h459v-95l-337 -469h347v-103h-493z" />
    <glyph glyph-name="Zdotaccent" unicode="&#x17b;" horiz-adv-x="533" 
d="M289 738c-31 0 -54 23 -54 54s24 55 54 55c32 0 55 -24 55 -56c0 -30 -24 -53 -55 -53zM20 0v94l342 478h-318v95h459v-95l-337 -469h347v-103h-493z" />
    <glyph glyph-name="abreve" unicode="&#x103;" horiz-adv-x="540" 
d="M363 711h64c-5 -81 -64 -134 -148 -134c-87 0 -144 51 -148 134h64c9 -46 34 -65 85 -65c50 0 75 19 83 65zM489 0h-107c-10 36 -14 58 -17 100c-16 -37 -27 -53 -47 -70c-30 -25 -74 -40 -120 -40c-96 0 -163 62 -163 151c0 76 50 130 142 153c51 13 102 17 188 17v37
c0 51 -35 76 -105 76c-68 0 -102 -23 -114 -76l-95 14c8 48 26 76 65 102c41 27 89 39 158 39c85 0 137 -17 169 -54c25 -28 31 -55 31 -127v-222c0 -32 5 -63 15 -100zM365 206v45c-142 0 -216 -35 -216 -103c0 -46 33 -74 87 -74c77 0 129 53 129 132z" />
    <glyph glyph-name="amacron" unicode="&#x101;" horiz-adv-x="540" 
d="M139 597v63h294v-63h-294zM489 0h-107c-10 36 -14 58 -17 100c-16 -37 -27 -53 -47 -70c-30 -25 -74 -40 -120 -40c-96 0 -163 62 -163 151c0 76 50 130 142 153c51 13 102 17 188 17v37c0 51 -35 76 -105 76c-68 0 -102 -23 -114 -76l-95 14c8 48 26 76 65 102
c41 27 89 39 158 39c85 0 137 -17 169 -54c25 -28 31 -55 31 -127v-222c0 -32 5 -63 15 -100zM365 206v45c-142 0 -216 -35 -216 -103c0 -46 33 -74 87 -74c77 0 129 53 129 132z" />
    <glyph glyph-name="aogonek" unicode="&#x105;" horiz-adv-x="540" 
d="M462 -115l11 -36c-27 -12 -51 -17 -79 -17c-58 0 -97 30 -97 75c0 40 24 66 85 93c-10 34 -15 59 -17 100c-16 -37 -27 -53 -47 -70c-30 -25 -74 -40 -120 -40c-96 0 -163 62 -163 151c0 76 50 130 142 153c51 13 102 17 188 17v37c0 51 -35 76 -105 76
c-68 0 -102 -23 -114 -76l-95 14c8 48 26 76 65 102c41 27 89 39 158 39c85 0 137 -17 169 -54c25 -28 31 -55 31 -127v-222c0 -32 5 -63 15 -100h-53c-49 -27 -70 -50 -70 -79c0 -27 21 -45 53 -45c14 0 25 2 43 9zM365 206v45c-142 0 -216 -35 -216 -103
c0 -46 33 -74 87 -74c77 0 129 53 129 132z" />
    <glyph glyph-name="cacute" unicode="&#x107;" horiz-adv-x="466" 
d="M219 567l-20 52l191 107l33 -73zM351 181l96 -10c-12 -54 -23 -80 -46 -109c-36 -47 -90 -72 -156 -72c-126 0 -210 103 -210 257c0 152 89 256 220 256c62 0 114 -22 147 -62c25 -29 36 -55 45 -108l-96 -13c-8 61 -39 92 -90 92c-68 0 -108 -64 -108 -170
c0 -97 38 -155 101 -155c49 0 82 32 97 94z" />
    <glyph glyph-name="ccaron" unicode="&#x10d;" horiz-adv-x="466" 
d="M255 563l-170 141l88 10l82 -64l81 64l89 -10zM351 181l96 -10c-12 -54 -23 -80 -46 -109c-36 -47 -90 -72 -156 -72c-126 0 -210 103 -210 257c0 152 89 256 220 256c62 0 114 -22 147 -62c25 -29 36 -55 45 -108l-96 -13c-8 61 -39 92 -90 92c-68 0 -108 -64 -108 -170
c0 -97 38 -155 101 -155c49 0 82 32 97 94z" />
    <glyph glyph-name="ccircumflex" unicode="&#x109;" horiz-adv-x="466" 
d="M81 580l170 141l170 -141l-88 -10l-82 64l-81 -64zM351 181l96 -10c-12 -54 -23 -80 -46 -109c-36 -47 -90 -72 -156 -72c-126 0 -210 103 -210 257c0 152 89 256 220 256c62 0 114 -22 147 -62c25 -29 36 -55 45 -108l-96 -13c-8 61 -39 92 -90 92
c-68 0 -108 -64 -108 -170c0 -97 38 -155 101 -155c49 0 82 32 97 94z" />
    <glyph glyph-name="cdotaccent" unicode="&#x10b;" horiz-adv-x="466" 
d="M253 580c-31 0 -54 23 -54 54s24 55 54 55c32 0 55 -24 55 -56c0 -30 -24 -53 -55 -53zM351 181l96 -10c-12 -54 -23 -80 -46 -109c-36 -47 -90 -72 -156 -72c-126 0 -210 103 -210 257c0 152 89 256 220 256c62 0 114 -22 147 -62c25 -29 36 -55 45 -108l-96 -13
c-8 61 -39 92 -90 92c-68 0 -108 -64 -108 -170c0 -97 38 -155 101 -155c49 0 82 32 97 94z" />
    <glyph glyph-name="dcaron" unicode="&#x10f;" horiz-adv-x="645" 
d="M515 473l30 194h100l-86 -194h-44zM368 0v99c-31 -75 -75 -109 -145 -109c-54 0 -100 22 -131 63c-34 44 -57 124 -57 200c0 82 25 156 69 207c31 36 73 54 125 54c63 0 105 -28 132 -88v241h111v-667h-104zM361 208v83c0 43 -7 67 -26 91c-20 24 -47 37 -76 37
c-68 0 -106 -62 -106 -172c0 -107 37 -166 103 -166c59 0 105 55 105 127z" />
    <glyph glyph-name="ecaron" unicode="&#x11b;" horiz-adv-x="524" 
d="M269 563l-170 141l88 10l82 -64l81 64l89 -10zM380 158l101 -14c-33 -100 -109 -154 -219 -154c-138 0 -227 100 -227 255c0 154 94 258 232 258c142 0 221 -96 222 -270h-338v-14c0 -91 44 -142 118 -142c56 0 88 23 111 81zM151 305h223c-2 37 -8 54 -25 77
c-21 28 -50 43 -86 43c-63 0 -103 -42 -112 -120z" />
    <glyph glyph-name="edotaccent" unicode="&#x117;" horiz-adv-x="524" 
d="M268 580c-31 0 -54 23 -54 54s24 55 54 55c32 0 55 -24 55 -56c0 -30 -24 -53 -55 -53zM380 158l101 -14c-33 -100 -109 -154 -219 -154c-138 0 -227 100 -227 255c0 154 94 258 232 258c142 0 221 -96 222 -270h-338v-14c0 -91 44 -142 118 -142c56 0 88 23 111 81z
M151 305h223c-2 37 -8 54 -25 77c-21 28 -50 43 -86 43c-63 0 -103 -42 -112 -120z" />
    <glyph glyph-name="emacron" unicode="&#x113;" horiz-adv-x="524" 
d="M135 597v63h294v-63h-294zM380 158l101 -14c-33 -100 -109 -154 -219 -154c-138 0 -227 100 -227 255c0 154 94 258 232 258c142 0 221 -96 222 -270h-338v-14c0 -91 44 -142 118 -142c56 0 88 23 111 81zM151 305h223c-2 37 -8 54 -25 77c-21 28 -50 43 -86 43
c-63 0 -103 -42 -112 -120z" />
    <glyph glyph-name="eogonek" unicode="&#x119;" horiz-adv-x="524" 
d="M276 -10h-16c-136 0 -225 101 -225 255s94 258 232 258c142 0 221 -96 222 -270h-338v-14c0 -90 44 -141 118 -141c56 0 88 23 111 80l101 -14c-17 -59 -59 -108 -116 -134c-42 -29 -63 -58 -63 -88c0 -28 21 -46 53 -46c13 0 25 2 43 9l10 -36c-26 -12 -51 -17 -78 -17
c-58 0 -97 30 -97 76c0 31 15 59 43 82zM151 305h223c-2 37 -8 54 -25 77c-21 28 -50 43 -86 43c-63 0 -103 -42 -112 -120z" />
    <glyph glyph-name="gbreve" unicode="&#x11f;" horiz-adv-x="518" 
d="M360 711h65c-6 -81 -65 -134 -149 -134c-87 0 -143 51 -148 134h64c9 -46 34 -65 85 -65c50 0 75 19 83 65zM210 120h147c95 0 160 -55 160 -135c0 -100 -98 -162 -256 -162c-159 0 -239 45 -239 134c0 47 18 72 72 100c-35 31 -46 50 -46 81c0 45 23 74 79 103
c-50 33 -69 64 -69 113c0 37 15 73 43 99c36 34 87 50 164 50c55 0 86 -7 123 -27c26 47 54 65 99 65c13 0 22 -1 33 -3l41 -9l-18 -83l-33 7c-10 2 -21 3 -29 3c-19 0 -26 -4 -43 -20c21 -25 31 -50 31 -81c0 -88 -83 -151 -200 -151c-29 0 -49 3 -92 13
c-25 -13 -34 -25 -34 -47c0 -30 26 -50 67 -50zM264 270c56 0 91 30 91 78c0 54 -32 85 -89 85c-56 0 -93 -33 -93 -82s36 -81 91 -81zM340 15h-118c-28 0 -44 2 -80 12c-18 -17 -24 -27 -24 -43c0 -52 64 -85 167 -85c83 0 128 23 128 66c0 30 -29 50 -73 50z" />
    <glyph glyph-name="gcircumflex" unicode="&#x11d;" horiz-adv-x="518" 
d="M113 603l157 141l156 -141l-88 -10l-68 65l-69 -65zM210 120h147c95 0 160 -55 160 -135c0 -100 -98 -162 -256 -162c-159 0 -239 45 -239 134c0 47 18 72 72 100c-35 31 -46 50 -46 81c0 45 23 74 79 103c-50 33 -69 64 -69 113c0 37 15 73 43 99c36 34 87 50 164 50
c55 0 86 -7 123 -27c26 47 54 65 99 65c13 0 22 -1 33 -3l41 -9l-18 -83l-33 7c-10 2 -21 3 -29 3c-19 0 -26 -4 -43 -20c21 -25 31 -50 31 -81c0 -88 -83 -151 -200 -151c-29 0 -49 3 -92 13c-25 -13 -34 -25 -34 -47c0 -30 26 -50 67 -50zM264 270c56 0 91 30 91 78
c0 54 -32 85 -89 85c-56 0 -93 -33 -93 -82s36 -81 91 -81zM340 15h-118c-28 0 -44 2 -80 12c-18 -17 -24 -27 -24 -43c0 -52 64 -85 167 -85c83 0 128 23 128 66c0 30 -29 50 -73 50z" />
    <glyph glyph-name="gcommaaccent" unicode="&#x123;" horiz-adv-x="518" 
d="M228 579l86 181h44l-30 -181h-100zM210 120h147c95 0 160 -55 160 -135c0 -100 -98 -162 -256 -162c-159 0 -239 45 -239 134c0 47 18 72 72 100c-35 31 -46 50 -46 81c0 45 23 74 79 103c-50 33 -69 64 -69 113c0 37 15 73 43 99c36 34 87 50 164 50c55 0 86 -7 123 -27
c26 47 54 65 99 65c13 0 22 -1 33 -3l41 -9l-18 -83l-33 7c-10 2 -21 3 -29 3c-19 0 -26 -4 -43 -20c21 -25 31 -50 31 -81c0 -88 -83 -151 -200 -151c-29 0 -49 3 -92 13c-25 -13 -34 -25 -34 -47c0 -30 26 -50 67 -50zM264 270c56 0 91 30 91 78c0 54 -32 85 -89 85
c-56 0 -93 -33 -93 -82s36 -81 91 -81zM340 15h-118c-28 0 -44 2 -80 12c-18 -17 -24 -27 -24 -43c0 -52 64 -85 167 -85c83 0 128 23 128 66c0 30 -29 50 -73 50z" />
    <glyph glyph-name="gdotaccent" unicode="&#x121;" horiz-adv-x="518" 
d="M272 580c-31 0 -54 23 -54 54s24 55 54 55c32 0 55 -24 55 -56c0 -30 -24 -53 -55 -53zM210 120h147c95 0 160 -55 160 -135c0 -100 -98 -162 -256 -162c-159 0 -239 45 -239 134c0 47 18 72 72 100c-35 31 -46 50 -46 81c0 45 23 74 79 103c-50 33 -69 64 -69 113
c0 37 15 73 43 99c36 34 87 50 164 50c55 0 86 -7 123 -27c26 47 54 65 99 65c13 0 22 -1 33 -3l41 -9l-18 -83l-33 7c-10 2 -21 3 -29 3c-19 0 -26 -4 -43 -20c21 -25 31 -50 31 -81c0 -88 -83 -151 -200 -151c-29 0 -49 3 -92 13c-25 -13 -34 -25 -34 -47
c0 -30 26 -50 67 -50zM264 270c56 0 91 30 91 78c0 54 -32 85 -89 85c-56 0 -93 -33 -93 -82s36 -81 91 -81zM340 15h-118c-28 0 -44 2 -80 12c-18 -17 -24 -27 -24 -43c0 -52 64 -85 167 -85c83 0 128 23 128 66c0 30 -29 50 -73 50z" />
    <glyph glyph-name="hcircumflex" unicode="&#x125;" horiz-adv-x="542" 
d="M47 730l-93 10l174 127l173 -127l-93 -10l-80 54zM67 0v667h111v-260c31 74 76 107 146 107c59 0 103 -22 127 -63c19 -32 24 -58 24 -112v-339h-111v323c0 62 -26 95 -75 95c-37 0 -74 -22 -90 -54c-15 -28 -21 -62 -21 -108v-256h-111z" />
    <glyph glyph-name="imacron" unicode="&#x12b;" horiz-adv-x="245" 
d="M12 597v63h234v-63h-234zM67 0v493h111v-493h-111z" />
    <glyph glyph-name="iogonek" unicode="&#x12f;" horiz-adv-x="245" 
d="M66 551v116h111v-116h-111zM66 0v493h111v-493h-23c-48 -27 -69 -50 -69 -79c0 -27 21 -45 53 -45c13 0 24 2 42 9l11 -36c-27 -12 -51 -17 -78 -17c-58 0 -97 30 -97 75c0 40 23 65 85 93h-35z" />
    <glyph glyph-name="itilde" unicode="&#x129;" horiz-adv-x="245" 
d="M-1 589l-34 50c33 40 63 57 98 57c19 0 35 -5 66 -19c35 -16 49 -21 66 -21c21 0 34 9 54 38l34 -50c-18 -32 -61 -57 -100 -57c-19 0 -44 8 -73 23c-28 15 -36 18 -50 18c-17 0 -33 -10 -61 -39zM67 0v493h111v-493h-111z" />
    <glyph glyph-name="jcircumflex" unicode="&#x135;" horiz-adv-x="245" 
d="M43 570l-88 10l169 141l170 -141l-88 -10l-82 64zM66 -14v507h111v-507c0 -121 -57 -184 -169 -184c-18 0 -32 1 -57 6v94c19 -2 27 -2 37 -2c62 0 78 18 78 86z" />
    <glyph glyph-name="kcommaaccent" unicode="&#x137;" horiz-adv-x="532" 
d="M67 0v667h107v-414c10 14 14 20 22 28l195 212h120l-148 -163l163 -330h-117l-126 253l-109 -123v-130h-107zM228 -53h100l-86 -181h-44z" />
    <glyph glyph-name="lacute" unicode="&#x13a;" horiz-adv-x="245" 
d="M104 727l-19 52l180 93l29 -74zM67 0v667h111v-667h-111z" />
    <glyph glyph-name="lcaron" unicode="&#x13e;" horiz-adv-x="352" 
d="M222 473l30 194h100l-86 -194h-44zM67 0v667h111v-667h-111z" />
    <glyph glyph-name="lcommaaccent" unicode="&#x13c;" horiz-adv-x="245" 
d="M67 0v667h111v-667h-111zM67 -53h100l-86 -181h-44z" />
    <glyph glyph-name="nacute" unicode="&#x144;" horiz-adv-x="541" 
d="M243 567l-20 52l192 107l32 -73zM67 0v493h101v-114c41 89 84 124 151 124c57 0 113 -30 135 -73c15 -29 21 -61 21 -112v-318h-111v308c0 60 -30 98 -77 98c-37 0 -72 -24 -91 -61c-12 -24 -18 -54 -18 -92v-253h-111z" />
    <glyph glyph-name="ncaron" unicode="&#x148;" horiz-adv-x="541" 
d="M271 563l-170 141l88 10l82 -64l81 64l89 -10zM67 0v493h101v-114c41 89 84 124 151 124c57 0 113 -30 135 -73c15 -29 21 -61 21 -112v-318h-111v308c0 60 -30 98 -77 98c-37 0 -72 -24 -91 -61c-12 -24 -18 -54 -18 -92v-253h-111z" />
    <glyph glyph-name="ncommaaccent" unicode="&#x146;" horiz-adv-x="541" 
d="M67 0v493h101v-114c41 89 84 124 151 124c57 0 113 -30 135 -73c15 -29 21 -61 21 -112v-318h-111v308c0 60 -30 98 -77 98c-37 0 -72 -24 -91 -61c-12 -24 -18 -54 -18 -92v-253h-111zM219 -53h100l-86 -181h-44z" />
    <glyph glyph-name="ohungarumlaut" unicode="&#x151;" horiz-adv-x="529" 
d="M355 567l-30 42l144 117l46 -57zM188 567l-35 42l149 117l46 -57zM84 81c-32 48 -49 105 -49 167c0 150 96 255 231 255c83 0 143 -32 187 -102c29 -46 41 -91 41 -155c0 -151 -96 -256 -234 -256c-76 0 -136 31 -176 91zM264 81c72 0 112 60 112 168
c0 106 -39 163 -110 163c-72 0 -113 -59 -113 -165c0 -105 41 -166 111 -166z" />
    <glyph glyph-name="omacron" unicode="&#x14d;" horiz-adv-x="529" 
d="M127 597v63h294v-63h-294zM84 81c-32 48 -49 105 -49 167c0 150 96 255 231 255c83 0 143 -32 187 -102c29 -46 41 -91 41 -155c0 -151 -96 -256 -234 -256c-76 0 -136 31 -176 91zM264 81c72 0 112 60 112 168c0 106 -39 163 -110 163c-72 0 -113 -59 -113 -165
c0 -105 41 -166 111 -166z" />
    <glyph glyph-name="racute" unicode="&#x155;" horiz-adv-x="331" 
d="M155 567l-21 52l192 107l32 -73zM67 0v493h101v-118c15 50 30 75 57 99c24 22 52 34 79 34c3 0 8 0 14 -1v-120c-3 1 -6 1 -7 1c-38 2 -76 -15 -98 -44c-21 -28 -35 -74 -35 -116v-228h-111z" />
    <glyph glyph-name="rcaron" unicode="&#x159;" horiz-adv-x="331" 
d="M189 563l-170 141l88 10l82 -64l81 64l89 -10zM66 0v493h101v-118c15 49 30 75 57 99c24 22 53 34 80 34c3 0 8 0 14 -1v-120c-3 1 -6 1 -7 1c-39 2 -76 -15 -99 -44c-21 -27 -35 -74 -35 -116v-228h-111z" />
    <glyph glyph-name="rcommaaccent" unicode="&#x157;" horiz-adv-x="331" 
d="M67 0v493h101v-118c15 50 30 75 57 99c24 22 52 34 79 34c3 0 8 0 14 -1v-120c-3 1 -6 1 -7 1c-38 2 -76 -15 -98 -44c-21 -28 -35 -74 -35 -116v-228h-111zM67 -53h100l-86 -181h-44z" />
    <glyph glyph-name="sacute" unicode="&#x15b;" horiz-adv-x="454" 
d="M187 567l-20 52l191 107l33 -73zM201 315l106 -22c82 -17 124 -65 124 -143c0 -97 -84 -160 -215 -160c-63 0 -117 16 -158 46c-26 20 -39 39 -51 77l104 20c21 -44 49 -60 109 -60c63 0 100 23 100 61c0 24 -21 42 -54 49l-90 18c-102 20 -149 65 -149 145
c0 39 14 75 39 103c34 37 82 54 151 54c101 0 167 -40 190 -114l-100 -21c-13 40 -39 56 -90 56c-53 0 -87 -21 -87 -53c0 -29 21 -46 71 -56z" />
    <glyph glyph-name="scedilla" unicode="&#x15f;" horiz-adv-x="454" 
d="M7 113l104 20c21 -44 50 -60 109 -60c63 0 100 23 100 61c0 24 -21 43 -54 49l-90 17c-102 19 -149 66 -149 146c0 39 14 75 39 103c34 37 82 54 151 54c101 0 167 -40 190 -115l-100 -20c-13 40 -39 56 -90 56c-52 0 -87 -21 -87 -53c0 -29 21 -46 71 -56l106 -22
c82 -17 124 -66 124 -143c0 -99 -82 -160 -216 -160l-10 -36c34 -2 48 -5 63 -13c26 -14 41 -38 41 -65c0 -45 -41 -80 -94 -80c-25 0 -52 8 -99 29l16 39c30 -17 53 -24 75 -24s39 15 39 35c0 25 -29 41 -74 41c-5 0 -12 0 -22 -1l25 77c-91 12 -150 54 -168 121z" />
    <glyph glyph-name="scircumflex" unicode="&#x15d;" horiz-adv-x="454" 
d="M53 580l169 141l170 -141l-88 -10l-82 64l-81 -64zM201 315l106 -22c82 -17 124 -65 124 -143c0 -97 -84 -160 -215 -160c-63 0 -117 16 -158 46c-26 20 -39 39 -51 77l104 20c21 -44 49 -60 109 -60c63 0 100 23 100 61c0 24 -21 42 -54 49l-90 18
c-102 20 -149 65 -149 145c0 39 14 75 39 103c34 37 82 54 151 54c101 0 167 -40 190 -114l-100 -21c-13 40 -39 56 -90 56c-53 0 -87 -21 -87 -53c0 -29 21 -46 71 -56z" />
    <glyph glyph-name="scommaaccent" unicode="&#x219;" horiz-adv-x="454" 
d="M201 315l106 -22c82 -17 124 -65 124 -143c0 -97 -84 -160 -215 -160c-63 0 -117 16 -158 46c-26 20 -39 39 -51 77l104 20c21 -44 49 -60 109 -60c63 0 100 23 100 61c0 24 -21 42 -54 49l-90 18c-102 20 -149 65 -149 145c0 39 14 75 39 103c34 37 82 54 151 54
c101 0 167 -40 190 -114l-100 -21c-13 40 -39 56 -90 56c-53 0 -87 -21 -87 -53c0 -29 21 -46 71 -56zM170 -53h100l-86 -181h-44z" />
    <glyph glyph-name="tcaron" unicode="&#x165;" horiz-adv-x="351" 
d="M240 547l30 194h100l-86 -194h-44zM295 87v-87c-31 -7 -62 -11 -78 -11c-42 0 -81 15 -105 39c-26 26 -34 56 -34 123v255h-61v87h68l10 128l91 8v-136h100v-87h-100v-240c0 -62 18 -80 81 -80c4 0 16 0 28 1z" />
    <glyph glyph-name="tcommaaccent" unicode="&#x163;" horiz-adv-x="322" 
d="M295 87v-87c-31 -7 -62 -11 -78 -11c-42 0 -81 15 -105 39c-26 26 -34 56 -34 123v255h-61v87h68l10 128l91 8v-136h100v-87h-100v-240c0 -62 18 -80 81 -80c4 0 16 0 28 1zM107 -53h100l-86 -181h-44z" />
    <glyph glyph-name="ubreve" unicode="&#x16d;" horiz-adv-x="539" 
d="M361 711h64c-6 -81 -65 -134 -148 -134c-88 0 -144 51 -149 134h64c9 -46 34 -65 86 -65c50 0 74 19 83 65zM369 0v107c-14 -42 -26 -60 -52 -81c-29 -24 -64 -36 -104 -36c-53 0 -93 20 -121 60c-18 27 -25 53 -25 98v345h114v-321c0 -26 3 -41 10 -54
c12 -20 36 -33 60 -33c39 0 79 29 96 69c10 25 15 53 15 102v237h111v-493h-104z" />
    <glyph glyph-name="uhungarumlaut" unicode="&#x171;" horiz-adv-x="539" 
d="M359 567l-30 42l144 117l46 -57zM192 567l-35 42l149 117l46 -57zM369 0v107c-14 -42 -26 -60 -52 -81c-29 -24 -64 -36 -104 -36c-53 0 -93 20 -121 60c-18 27 -25 53 -25 98v345h114v-321c0 -26 3 -41 10 -54c12 -20 36 -33 60 -33c39 0 79 29 96 69
c10 25 15 53 15 102v237h111v-493h-104z" />
    <glyph glyph-name="umacron" unicode="&#x16b;" horiz-adv-x="539" 
d="M130 597v63h294v-63h-294zM369 0v107c-14 -42 -26 -60 -52 -81c-29 -24 -64 -36 -104 -36c-53 0 -93 20 -121 60c-18 27 -25 53 -25 98v345h114v-321c0 -26 3 -41 10 -54c12 -20 36 -33 60 -33c39 0 79 29 96 69c10 25 15 53 15 102v237h111v-493h-104z" />
    <glyph glyph-name="uogonek" unicode="&#x173;" horiz-adv-x="539" 
d="M369 0v107c-14 -42 -26 -60 -52 -81c-29 -24 -64 -36 -104 -36c-53 0 -93 20 -121 60c-18 27 -25 53 -25 98v345h114v-321c0 -26 3 -41 10 -54c12 -20 36 -33 60 -33c39 0 79 29 96 69c10 25 15 53 15 102v237h111v-493h-50c-49 -26 -70 -50 -70 -79c0 -27 21 -45 53 -45
c13 0 25 2 43 9l10 -36c-26 -12 -51 -17 -78 -17c-58 0 -97 30 -97 75c0 41 20 63 85 93z" />
    <glyph glyph-name="uring" unicode="&#x16f;" horiz-adv-x="539" 
d="M276 554c-50 0 -90 40 -90 90s41 91 91 91c51 0 90 -40 90 -91c0 -50 -40 -90 -91 -90zM276 605c24 0 40 16 40 39s-16 40 -37 40c-25 0 -42 -16 -42 -39c0 -24 16 -40 39 -40zM369 0v107c-14 -42 -26 -60 -52 -81c-29 -24 -64 -36 -104 -36c-53 0 -93 20 -121 60
c-18 27 -25 53 -25 98v345h114v-321c0 -26 3 -41 10 -54c12 -20 36 -33 60 -33c39 0 79 29 96 69c10 25 15 53 15 102v237h111v-493h-104z" />
    <glyph glyph-name="utilde" unicode="&#x169;" horiz-adv-x="539" 
d="M145 589l-34 50c33 40 63 57 98 57c19 0 35 -5 66 -19c35 -16 49 -21 66 -21c21 0 34 9 54 38l34 -50c-18 -32 -61 -57 -100 -57c-19 0 -44 8 -73 23c-28 15 -36 18 -50 18c-17 0 -33 -10 -61 -39zM369 0v107c-14 -42 -26 -60 -52 -81c-29 -24 -64 -36 -104 -36
c-53 0 -93 20 -121 60c-18 27 -25 53 -25 98v345h114v-321c0 -26 3 -41 10 -54c12 -20 36 -33 60 -33c39 0 79 29 96 69c10 25 15 53 15 102v237h111v-493h-104z" />
    <glyph glyph-name="wcircumflex" unicode="&#x175;" horiz-adv-x="697" 
d="M162 0l-152 493h118l98 -332l84 332h101l87 -332l95 332h94l-145 -493h-100l-89 346l-88 -346h-103zM188 580l170 141l170 -141l-89 -10l-81 64l-82 -64z" />
    <glyph glyph-name="ycircumflex" unicode="&#x177;" horiz-adv-x="442" 
d="M45 -86c21 -1 40 -1 55 -1c34 0 55 9 66 28c8 14 21 51 21 58c0 2 -4 13 -11 31l-169 463h116l120 -326l103 326h89l-192 -562c-26 -76 -66 -109 -134 -109c-14 0 -40 2 -64 4v88zM65 580l170 141l170 -141l-89 -10l-81 64l-82 -64z" />
    <glyph glyph-name="zacute" unicode="&#x17a;" horiz-adv-x="419" 
d="M194 567l-20 52l191 107l33 -73zM23 0v87l243 319h-220v87h349v-79l-240 -327h240v-87h-372z" />
    <glyph glyph-name="zdotaccent" unicode="&#x17c;" horiz-adv-x="419" 
d="M231 580c-31 0 -54 23 -54 54s24 55 54 55c32 0 55 -24 55 -56c0 -30 -24 -53 -55 -53zM23 0v87l243 319h-220v87h349v-79l-240 -327h240v-87h-372z" />
    <glyph glyph-name="uni00A0" unicode="&#xa0;" horiz-adv-x="250" 
 />
    <glyph glyph-name="uni00AD" unicode="&#xad;" horiz-adv-x="241" 
d="M-2 208v91h245v-91h-245z" />
    <glyph glyph-name="uni021A" unicode="&#x21a;" horiz-adv-x="483" 
d="M177 0v564h-177v103h483v-103h-177v-564h-129zM190 -54h100l-86 -180h-44z" />
    <glyph glyph-name="i.dot" horiz-adv-x="245" 
d="M67 551v116h111v-116h-111zM67 0v493h111v-493h-111z" />
    <glyph glyph-name="uni021B" unicode="&#x21b;" horiz-adv-x="322" 
d="M295 87v-87c-31 -7 -62 -11 -78 -11c-42 0 -81 15 -105 39c-26 26 -34 56 -34 123v255h-61v87h68l10 128l91 8v-136h100v-87h-100v-240c0 -62 18 -80 81 -80c4 0 16 0 28 1zM107 -53h100l-86 -181h-44z" />
    <glyph glyph-name="uni03A9" unicode="&#x3a9;" 
d="M10 0v103h154c-47 26 -69 46 -92 81c-34 52 -51 115 -51 190c0 181 110 303 273 303c162 0 272 -122 272 -303c0 -75 -17 -138 -51 -190c-23 -35 -45 -55 -92 -81h154v-103h-255v103c38 27 58 47 75 79c25 46 39 108 39 178c0 137 -54 220 -143 220
c-88 0 -142 -83 -142 -220c0 -69 14 -132 39 -178c17 -32 37 -52 75 -79v-103h-255z" />
    <glyph glyph-name="uni2032" unicode="&#x2032;" horiz-adv-x="255" 
d="M52 399l41 268h109l-73 -268h-77z" />
    <glyph glyph-name="uni2033" unicode="&#x2033;" horiz-adv-x="420" 
d="M52 399l41 268h109l-73 -268h-77zM217 399l41 268h109l-73 -268h-77z" />
    <glyph glyph-name="uni2113" unicode="&#x2113;" horiz-adv-x="511" 
d="M250 268l-14 -71c-11 -57 -17 -100 -17 -125c0 -18 6 -27 17 -27c15 0 31 18 46 51c7 14 12 19 20 19c10 0 16 -7 16 -18c0 -20 -13 -48 -33 -71c-22 -27 -47 -40 -73 -40c-47 0 -71 36 -71 106c0 22 1 41 5 99c-32 -31 -35 -33 -42 -33c-8 0 -16 11 -16 21
c0 8 5 15 18 27c13 13 31 33 48 53c23 126 48 218 81 297c33 81 73 122 121 122c43 0 70 -34 70 -87s-24 -124 -65 -189c-22 -36 -53 -73 -111 -134zM263 345c72 80 114 169 114 238c0 27 -8 44 -21 44c-12 0 -28 -18 -36 -42c-18 -51 -41 -149 -57 -240z" />
    <glyph glyph-name="uni2117" unicode="&#x2117;" horiz-adv-x="773" 
d="M41 333c0 194 155 348 351 348c186 0 341 -158 341 -348c0 -191 -155 -347 -345 -347c-191 0 -347 156 -347 347zM103 333c0 -160 128 -291 285 -291c156 0 283 131 283 291c0 159 -127 292 -279 292c-162 0 -289 -129 -289 -292zM239 133v400h185c96 0 151 -43 151 -119
c0 -83 -73 -117 -151 -119h-100v-162h-85zM324 358h88c48 0 75 20 75 57c0 34 -26 55 -69 55h-94v-112z" />
    <glyph glyph-name="shift" unicode="&#x21e7;" horiz-adv-x="998" 
d="M33 261l466 467l466 -467h-233v-261h-466v261h-233zM344 78h310v261h124l-279 279l-279 -279h124v-261z" />
    <glyph glyph-name="control" unicode="&#x2303;" horiz-adv-x="453" 
d="M83 469l-58 58l201 201l202 -201l-58 -58l-144 142z" />
    <glyph glyph-name="option" unicode="&#x2325;" horiz-adv-x="926" 
d="M552 589l-39 78h334v-78h-295zM579 0l-295 589h-205v78h268l295 -589h205v-78h-268z" />
    <glyph glyph-name="command" horiz-adv-x="793" 
d="M341 199v-64c0 -81 -65 -147 -146 -147s-144 66 -144 147s63 143 144 143h67v111h-67c-81 0 -144 62 -144 143s63 147 144 147s146 -66 146 -147v-64h111v64c0 81 65 147 146 147s144 -66 144 -147s-63 -143 -144 -143h-67v-111h67c81 0 144 -62 144 -143
s-63 -147 -144 -147s-146 66 -146 147v64h-111zM531 468h67c37 0 65 27 65 64s-28 68 -65 68s-67 -31 -67 -68v-64zM195 468h67v64c0 37 -30 68 -67 68s-65 -31 -65 -68s28 -64 65 -64zM341 278h111v111h-111v-111zM531 135c0 -37 30 -68 67 -68s65 31 65 68s-28 64 -65 64
h-67v-64zM262 199h-67c-37 0 -65 -27 -65 -64s28 -68 65 -68s67 31 67 68v64z" />
    <glyph glyph-name="apple" unicode="&#xf8ff;" horiz-adv-x="800" 
d="M35 101v649h629c56 0 101 -45 101 -101v-649h-629c-56 0 -101 45 -101 101zM233 628v-169c0 -45 24 -72 70 -72s70 27 70 72v169c0 46 -24 72 -70 72s-70 -26 -70 -72zM400 390h54v234c0 15 5 23 16 23c10 0 16 -8 16 -23v-234h54v240c0 46 -18 68 -58 68
c-5 0 -23 -2 -27 -10v9h-55v-307zM581 459c0 -45 24 -72 70 -72s70 27 70 72v34h-54v-31c0 -15 -6 -23 -16 -23s-16 8 -16 23v128h78v52h-79v55h-54v-55h-18v-52h19v-131zM92 390h54v103h59v60h-59v84h67v60h-121v-307zM319 624v-162c0 -15 -6 -22 -16 -22s-16 7 -16 22v162
c0 15 6 23 16 23s16 -8 16 -23zM526 122c0 -45 24 -72 70 -72s70 27 70 72v12h-54v-9c0 -15 -6 -22 -16 -22s-16 7 -16 22v39h86v127c0 46 -24 72 -70 72s-70 -26 -70 -72v-169zM90 131c0 -52 25 -81 73 -81s73 33 73 89c0 28 -5 53 -66 95c-15 10 -26 19 -26 38
c0 27 6 38 19 38c12 0 18 -11 18 -32v-25h54v29c0 53 -24 81 -72 81s-74 -33 -74 -89c0 -28 5 -55 67 -96c15 -10 25 -19 25 -37c0 -27 -6 -38 -19 -38c-12 0 -18 11 -18 32v10h-54v-14zM365 122c0 -45 24 -72 70 -72s70 27 70 72v34h-54v-31c0 -15 -6 -22 -16 -22
s-16 7 -16 22v128h78v52h-79v55h-54v-55h-18v-52h19v-131zM266 299h54v61h-54v-61zM580 210v77c0 15 6 23 16 23s16 -8 16 -23v-77h-32zM266 53h54v215h-54v-215zM706 53h6v27l9 -21h4l9 21v-27h6v35h-8l-9 -21l-9 21h-8v-35zM674 82h10v-29h6v29h10v6h-26v-6z" />
    </font>
</defs>
</svg>
